<svg xmlns="http://www.w3.org/2000/svg" viewBox="-55.00 -30.87 110.00 57.78" role="img" aria-label="AmeriDex assembly cross-section: cellular PVC deck boards locking onto the Dexerdry TPE seal" preserveAspectRatio="xMidYMid meet">
  <defs>
    <linearGradient id="adxBoard" x1="0" y1="0" x2="0" y2="1">
      <stop offset="0%" stop-color="#864832"/>
      <stop offset="100%" stop-color="#5e3221"/>
    </linearGradient>
    <linearGradient id="adxCap" x1="0" y1="0" x2="0" y2="1">
      <stop offset="0%" stop-color="#6a3724"/>
      <stop offset="100%" stop-color="#5a2e1d"/>
    </linearGradient>
    <linearGradient id="adxTpe" x1="0" y1="0" x2="0" y2="1">
      <stop offset="0%" stop-color="#3e434b"/>
      <stop offset="100%" stop-color="#1d2228"/>
    </linearGradient>
    <pattern id="grain" patternUnits="userSpaceOnUse" width="3.5" height="40" patternTransform="translate(0,0)">
      <rect width="3.5" height="40" fill="url(#adxBoard)"/>
      <rect x="0" y="0" width="0.05" height="40" fill="rgba(0,0,0,0.14)"/>
      <rect x="1.6" y="0" width="0.04" height="40" fill="rgba(0,0,0,0.08)"/>
    </pattern>
  </defs>

  <!-- Rain hitting deck -->
  <g stroke="#3D8BD6" stroke-width="0.5" fill="none" stroke-linecap="round" stroke-linejoin="round" opacity="0.92">
    <path d="M -45.00 -19.53 L -42.00 -16.53"/><path d="M -42.00 -16.53 L -43.50 -16.98"/><path d="M -42.00 -16.53 L -42.45 -18.03"/>
    <path d="M -25.00 -20.53 L -22.00 -17.53"/><path d="M -22.00 -17.53 L -23.50 -17.98"/><path d="M -22.00 -17.53 L -22.45 -19.03"/>
    <path d="M 19.00 -20.53 L 22.00 -17.53"/><path d="M 22.00 -17.53 L 20.50 -17.98"/><path d="M 22.00 -17.53 L 21.55 -19.03"/>
    <path d="M 39.00 -19.53 L 42.00 -16.53"/><path d="M 42.00 -16.53 L 40.50 -16.98"/><path d="M 42.00 -16.53 L 41.55 -18.03"/>
  </g>
  <g fill="#3D8BD6" opacity="0.85">
    <circle cx="-42" cy="-16.53" r="0.55"/>
    <circle cx="-22" cy="-17.53" r="0.55"/>
    <circle cx="22" cy="-17.53" r="0.55"/>
    <circle cx="42" cy="-16.53" r="0.55"/>
  </g>

  <!-- Boards (cellular PVC w/ ASA cap) -->
  <path d="M -2.203 -10.127 L -2.207 -10.252 L -2.219 -10.376 L -2.240 -10.499 L -2.268 -10.620 L -2.304 -10.739 L -2.348 -10.856 L -2.399 -10.970 L -2.458 -11.079 L -2.524 -11.185 L -2.597 -11.287 L -2.676 -11.383 L -2.761 -11.474 L -2.852 -11.559 L -2.948 -11.638 L -3.050 -11.711 L -3.155 -11.777 L -3.265 -11.835 L -3.379 -11.887 L -3.496 -11.931 L -3.615 -11.967 L -3.736 -11.995 L -3.859 -12.016 L -3.983 -12.028 L -4.108 -12.032 L -9.717 -12.032 L -15.326 -12.032 L -20.935 -12.032 L -26.545 -12.032 L -32.154 -12.032 L -37.763 -12.032 L -43.372 -12.032 L -48.981 -12.032 L -54.590 -12.032 L -60.200 -12.032 L -65.809 -12.032 L -71.418 -12.032 L -77.027 -12.032 L -82.636 -12.032 L -88.245 -12.032 L -93.855 -12.032 L -99.464 -12.032 L -105.073 -12.032 L -110.682 -12.032 L -116.291 -12.032 L -121.900 -12.032 L -127.510 -12.032 L -133.119 -12.032 L -138.728 -12.032 L -138.853 -12.028 L -138.977 -12.016 L -139.100 -11.995 L -139.221 -11.967 L -139.340 -11.931 L -139.457 -11.887 L -139.571 -11.835 L -139.680 -11.777 L -139.786 -11.711 L -139.888 -11.638 L -139.984 -11.559 L -140.075 -11.474 L -140.160 -11.383 L -140.239 -11.287 L -140.312 -11.185 L -140.378 -11.079 L -140.436 -10.970 L -140.488 -10.856 L -140.532 -10.739 L -140.568 -10.620 L -140.596 -10.499 L -140.617 -10.376 L -140.629 -10.252 L -140.633 -10.127 L -140.633 -9.852 L -140.633 -9.578 L -140.633 -9.303 L -140.633 -9.028 L -140.633 -8.754 L -140.633 -8.479 L -140.633 -8.204 L -140.633 -7.930 L -140.633 -7.655 L -140.633 -7.381 L -140.633 -7.106 L -140.633 -6.831 L -140.633 -6.557 L -140.633 -6.282 L -140.633 -6.007 L -140.633 -5.733 L -140.633 -5.458 L -140.633 -5.183 L -140.633 -4.909 L -140.633 -4.634 L -140.633 -4.360 L -140.633 -4.085 L -140.633 -3.810 L -140.633 -3.536 L -140.632 -3.494 L -140.628 -3.453 L -140.621 -3.412 L -140.611 -3.371 L -140.599 -3.332 L -140.585 -3.293 L -140.567 -3.255 L -140.548 -3.218 L -140.526 -3.183 L -140.502 -3.149 L -140.475 -3.117 L -140.447 -3.087 L -140.417 -3.058 L -140.385 -3.032 L -140.351 -3.008 L -140.315 -2.986 L -140.279 -2.966 L -140.241 -2.949 L -140.202 -2.934 L -140.162 -2.922 L -140.122 -2.913 L -140.081 -2.906 L -140.039 -2.902 L -139.998 -2.901 L -139.813 -2.901 L -139.628 -2.901 L -139.442 -2.901 L -139.257 -2.901 L -139.072 -2.901 L -138.887 -2.901 L -138.701 -2.901 L -138.516 -2.901 L -138.331 -2.901 L -138.146 -2.901 L -137.961 -2.901 L -137.775 -2.901 L -137.590 -2.901 L -137.405 -2.901 L -137.220 -2.901 L -137.035 -2.901 L -136.849 -2.901 L -136.664 -2.901 L -136.479 -2.901 L -136.294 -2.901 L -136.109 -2.901 L -135.923 -2.901 L -135.738 -2.901 L -135.553 -2.901 L -135.553 -2.874 L -135.553 -2.848 L -135.553 -2.821 L -135.553 -2.795 L -135.553 -2.768 L -135.553 -2.742 L -135.553 -2.715 L -135.553 -2.689 L -135.553 -2.663 L -135.553 -2.636 L -135.553 -2.610 L -135.553 -2.583 L -135.553 -2.557 L -135.553 -2.530 L -135.553 -2.504 L -135.553 -2.477 L -135.553 -2.451 L -135.553 -2.424 L -135.553 -2.398 L -135.553 -2.371 L -135.553 -2.345 L -135.553 -2.319 L -135.553 -2.292 L -135.553 -2.266 L -135.368 -2.266 L -135.183 -2.266 L -134.997 -2.266 L -134.812 -2.266 L -134.627 -2.266 L -134.442 -2.266 L -134.256 -2.266 L -134.071 -2.266 L -133.886 -2.266 L -133.701 -2.266 L -133.516 -2.266 L -133.330 -2.266 L -133.145 -2.266 L -132.960 -2.266 L -132.775 -2.266 L -132.590 -2.266 L -132.404 -2.266 L -132.219 -2.266 L -132.034 -2.266 L -131.849 -2.266 L -131.664 -2.266 L -131.478 -2.266 L -131.293 -2.266 L -131.108 -2.266 L -131.025 -2.263 L -130.942 -2.255 L -130.860 -2.241 L -130.779 -2.222 L -130.700 -2.198 L -130.622 -2.169 L -130.546 -2.135 L -130.473 -2.096 L -130.402 -2.052 L -130.335 -2.003 L -130.271 -1.950 L -130.210 -1.894 L -130.153 -1.833 L -130.100 -1.769 L -130.052 -1.701 L -130.008 -1.631 L -129.969 -1.557 L -129.935 -1.482 L -129.905 -1.404 L -129.881 -1.324 L -129.862 -1.243 L -129.849 -1.161 L -129.841 -1.079 L -129.838 -0.996 L -129.838 -0.910 L -129.838 -0.824 L -129.838 -0.738 L -129.838 -0.653 L -129.838 -0.567 L -129.838 -0.481 L -129.838 -0.396 L -129.838 -0.310 L -129.838 -0.224 L -129.838 -0.138 L -129.838 -0.053 L -129.838 0.033 L -129.838 0.119 L -129.838 0.204 L -129.838 0.290 L -129.838 0.376 L -129.838 0.462 L -129.838 0.547 L -129.838 0.633 L -129.838 0.719 L -129.838 0.805 L -129.838 0.890 L -129.838 0.976 L -129.838 1.062 L -129.841 1.145 L -129.849 1.228 L -129.862 1.310 L -129.881 1.390 L -129.905 1.470 L -129.935 1.548 L -129.969 1.623 L -130.008 1.697 L -130.052 1.767 L -130.100 1.835 L -130.153 1.899 L -130.210 1.960 L -130.271 2.017 L -130.335 2.069 L -130.402 2.118 L -130.473 2.162 L -130.546 2.201 L -130.622 2.235 L -130.700 2.264 L -130.779 2.288 L -130.860 2.307 L -130.942 2.321 L -131.025 2.329 L -131.108 2.332 L -131.478 2.332 L -131.849 2.332 L -132.219 2.332 L -132.590 2.332 L -132.960 2.332 L -133.330 2.332 L -133.701 2.332 L -134.071 2.332 L -134.442 2.332 L -134.812 2.332 L -135.183 2.332 L -135.553 2.332 L -135.923 2.332 L -136.294 2.332 L -136.664 2.332 L -137.035 2.332 L -137.405 2.332 L -137.775 2.332 L -138.146 2.332 L -138.516 2.332 L -138.887 2.332 L -139.257 2.332 L -139.628 2.332 L -139.998 2.332 L -140.081 2.334 L -140.164 2.343 L -140.246 2.356 L -140.327 2.375 L -140.406 2.399 L -140.484 2.428 L -140.560 2.463 L -140.633 2.502 L -140.704 2.546 L -140.771 2.594 L -140.835 2.647 L -140.896 2.704 L -140.953 2.764 L -141.006 2.829 L -141.054 2.896 L -141.098 2.967 L -141.137 3.040 L -141.171 3.116 L -141.201 3.194 L -141.225 3.273 L -141.244 3.354 L -141.257 3.436 L -141.265 3.519 L -141.268 3.602 L -141.268 3.647 L -141.268 3.692 L -141.268 3.736 L -141.268 3.781 L -141.268 3.826 L -141.268 3.871 L -141.268 3.916 L -141.268 3.961 L -141.268 4.006 L -141.268 4.051 L -141.268 4.096 L -141.268 4.141 L -141.268 4.186 L -141.268 4.230 L -141.268 4.275 L -141.268 4.320 L -141.268 4.365 L -141.268 4.410 L -141.268 4.455 L -141.268 4.500 L -141.268 4.545 L -141.268 4.590 L -141.268 4.635 L -141.268 4.680 L -141.267 4.721 L -141.265 4.763 L -141.262 4.804 L -141.257 4.845 L -141.251 4.886 L -141.244 4.927 L -141.235 4.968 L -141.225 5.008 L -141.213 5.048 L -141.201 5.088 L -141.187 5.127 L -141.171 5.166 L -141.155 5.204 L -141.137 5.241 L -141.118 5.278 L -141.098 5.315 L -141.076 5.350 L -141.054 5.385 L -141.030 5.419 L -141.006 5.453 L -140.980 5.485 L -140.953 5.517 L -140.925 5.548 L -140.896 5.578 L -140.613 5.861 L -140.329 6.144 L -140.046 6.428 L -139.763 6.711 L -139.479 6.994 L -139.196 7.278 L -138.913 7.561 L -138.629 7.844 L -138.346 8.128 L -138.063 8.411 L -137.779 8.694 L -137.496 8.978 L -137.213 9.261 L -136.929 9.544 L -136.646 9.828 L -136.363 10.111 L -136.079 10.394 L -135.796 10.678 L -135.513 10.961 L -135.229 11.244 L -134.946 11.528 L -134.663 11.811 L -134.379 12.094 L -134.096 12.378 L -134.066 12.407 L -134.035 12.435 L -134.003 12.461 L -133.971 12.487 L -133.938 12.512 L -133.903 12.536 L -133.868 12.558 L -133.833 12.580 L -133.796 12.600 L -133.760 12.619 L -133.722 12.637 L -133.684 12.653 L -133.645 12.668 L -133.606 12.682 L -133.566 12.695 L -133.526 12.706 L -133.486 12.717 L -133.446 12.725 L -133.405 12.733 L -133.364 12.739 L -133.322 12.744 L -133.281 12.747 L -133.239 12.749 L -133.198 12.750 L -128.049 12.750 L -122.901 12.750 L -117.753 12.750 L -112.605 12.750 L -107.456 12.750 L -102.308 12.750 L -97.160 12.750 L -92.011 12.750 L -86.863 12.750 L -81.715 12.750 L -76.566 12.750 L -71.418 12.750 L -66.270 12.750 L -61.121 12.750 L -55.973 12.750 L -50.825 12.750 L -45.676 12.750 L -40.528 12.750 L -35.380 12.750 L -30.231 12.750 L -25.083 12.750 L -19.935 12.750 L -14.786 12.750 L -9.638 12.750 L -9.597 12.749 L -9.555 12.747 L -9.514 12.744 L -9.472 12.739 L -9.431 12.733 L -9.390 12.725 L -9.350 12.717 L -9.309 12.706 L -9.269 12.695 L -9.230 12.682 L -9.191 12.668 L -9.152 12.653 L -9.114 12.637 L -9.076 12.619 L -9.039 12.600 L -9.003 12.580 L -8.967 12.558 L -8.933 12.536 L -8.898 12.512 L -8.865 12.487 L -8.832 12.461 L -8.801 12.435 L -8.770 12.407 L -8.740 12.378 L -8.457 12.094 L -8.173 11.811 L -7.890 11.528 L -7.607 11.244 L -7.323 10.961 L -7.040 10.678 L -6.757 10.394 L -6.473 10.111 L -6.190 9.828 L -5.907 9.544 L -5.623 9.261 L -5.340 8.978 L -5.057 8.694 L -4.773 8.411 L -4.490 8.128 L -4.207 7.844 L -3.923 7.561 L -3.640 7.278 L -3.357 6.994 L -3.073 6.711 L -2.790 6.428 L -2.507 6.144 L -2.223 5.861 L -1.940 5.578 L -1.911 5.548 L -1.883 5.517 L -1.856 5.485 L -1.830 5.453 L -1.806 5.419 L -1.782 5.385 L -1.759 5.350 L -1.738 5.315 L -1.718 5.278 L -1.699 5.241 L -1.681 5.204 L -1.665 5.166 L -1.649 5.127 L -1.635 5.088 L -1.623 5.048 L -1.611 5.008 L -1.601 4.968 L -1.592 4.927 L -1.585 4.886 L -1.579 4.845 L -1.574 4.804 L -1.571 4.763 L -1.569 4.721 L -1.568 4.680 L -1.568 4.635 L -1.568 4.590 L -1.568 4.545 L -1.568 4.500 L -1.568 4.455 L -1.568 4.410 L -1.568 4.365 L -1.568 4.320 L -1.568 4.275 L -1.568 4.230 L -1.568 4.186 L -1.568 4.141 L -1.568 4.096 L -1.568 4.051 L -1.568 4.006 L -1.568 3.961 L -1.568 3.916 L -1.568 3.871 L -1.568 3.826 L -1.568 3.781 L -1.568 3.736 L -1.568 3.692 L -1.568 3.647 L -1.568 3.602 L -1.571 3.519 L -1.579 3.436 L -1.592 3.354 L -1.611 3.273 L -1.635 3.194 L -1.665 3.116 L -1.699 3.040 L -1.738 2.967 L -1.782 2.896 L -1.830 2.829 L -1.883 2.764 L -1.940 2.704 L -2.001 2.647 L -2.065 2.594 L -2.132 2.546 L -2.203 2.502 L -2.276 2.463 L -2.352 2.428 L -2.430 2.399 L -2.509 2.375 L -2.590 2.356 L -2.672 2.343 L -2.755 2.334 L -2.838 2.332 L -3.208 2.332 L -3.579 2.332 L -3.949 2.332 L -4.320 2.332 L -4.690 2.332 L -5.060 2.332 L -5.431 2.332 L -5.801 2.332 L -6.172 2.332 L -6.542 2.332 L -6.913 2.332 L -7.283 2.332 L -7.653 2.332 L -8.024 2.332 L -8.394 2.332 L -8.765 2.332 L -9.135 2.332 L -9.505 2.332 L -9.876 2.332 L -10.246 2.332 L -10.617 2.332 L -10.987 2.332 L -11.358 2.332 L -11.728 2.332 L -11.811 2.329 L -11.894 2.321 L -11.976 2.307 L -12.057 2.288 L -12.136 2.264 L -12.214 2.235 L -12.290 2.201 L -12.363 2.162 L -12.434 2.118 L -12.501 2.069 L -12.565 2.017 L -12.626 1.960 L -12.683 1.899 L -12.736 1.835 L -12.784 1.767 L -12.828 1.697 L -12.867 1.623 L -12.901 1.548 L -12.931 1.470 L -12.955 1.390 L -12.974 1.310 L -12.987 1.228 L -12.995 1.145 L -12.998 1.062 L -12.998 0.976 L -12.998 0.890 L -12.998 0.805 L -12.998 0.719 L -12.998 0.633 L -12.998 0.547 L -12.998 0.462 L -12.998 0.376 L -12.998 0.290 L -12.998 0.204 L -12.998 0.119 L -12.998 0.033 L -12.998 -0.053 L -12.998 -0.138 L -12.998 -0.224 L -12.998 -0.310 L -12.998 -0.396 L -12.998 -0.481 L -12.998 -0.567 L -12.998 -0.653 L -12.998 -0.738 L -12.998 -0.824 L -12.998 -0.910 L -12.998 -0.996 L -12.995 -1.079 L -12.987 -1.161 L -12.974 -1.243 L -12.955 -1.324 L -12.931 -1.404 L -12.901 -1.482 L -12.867 -1.557 L -12.828 -1.631 L -12.784 -1.701 L -12.736 -1.769 L -12.683 -1.833 L -12.626 -1.894 L -12.565 -1.950 L -12.501 -2.003 L -12.434 -2.052 L -12.363 -2.096 L -12.290 -2.135 L -12.214 -2.169 L -12.136 -2.198 L -12.057 -2.222 L -11.976 -2.241 L -11.894 -2.255 L -11.811 -2.263 L -11.728 -2.266 L -11.543 -2.266 L -11.358 -2.266 L -11.172 -2.266 L -10.987 -2.266 L -10.802 -2.266 L -10.617 -2.266 L -10.431 -2.266 L -10.246 -2.266 L -10.061 -2.266 L -9.876 -2.266 L -9.691 -2.266 L -9.505 -2.266 L -9.320 -2.266 L -9.135 -2.266 L -8.950 -2.266 L -8.765 -2.266 L -8.579 -2.266 L -8.394 -2.266 L -8.209 -2.266 L -8.024 -2.266 L -7.839 -2.266 L -7.653 -2.266 L -7.468 -2.266 L -7.283 -2.266 L -7.283 -2.292 L -7.283 -2.319 L -7.283 -2.345 L -7.283 -2.371 L -7.283 -2.398 L -7.283 -2.424 L -7.283 -2.451 L -7.283 -2.477 L -7.283 -2.504 L -7.283 -2.530 L -7.283 -2.557 L -7.283 -2.583 L -7.283 -2.610 L -7.283 -2.636 L -7.283 -2.663 L -7.283 -2.689 L -7.283 -2.715 L -7.283 -2.742 L -7.283 -2.768 L -7.283 -2.795 L -7.283 -2.821 L -7.283 -2.848 L -7.283 -2.874 L -7.283 -2.901 L -7.098 -2.901 L -6.913 -2.901 L -6.727 -2.901 L -6.542 -2.901 L -6.357 -2.901 L -6.172 -2.901 L -5.986 -2.901 L -5.801 -2.901 L -5.616 -2.901 L -5.431 -2.901 L -5.246 -2.901 L -5.060 -2.901 L -4.875 -2.901 L -4.690 -2.901 L -4.505 -2.901 L -4.320 -2.901 L -4.134 -2.901 L -3.949 -2.901 L -3.764 -2.901 L -3.579 -2.901 L -3.394 -2.901 L -3.208 -2.901 L -3.023 -2.901 L -2.838 -2.901 L -2.796 -2.902 L -2.755 -2.906 L -2.714 -2.913 L -2.674 -2.922 L -2.634 -2.934 L -2.595 -2.949 L -2.557 -2.966 L -2.520 -2.986 L -2.485 -3.008 L -2.451 -3.032 L -2.419 -3.058 L -2.389 -3.087 L -2.361 -3.117 L -2.334 -3.149 L -2.310 -3.183 L -2.288 -3.218 L -2.268 -3.255 L -2.251 -3.293 L -2.237 -3.332 L -2.225 -3.371 L -2.215 -3.412 L -2.208 -3.453 L -2.204 -3.494 L -2.203 -3.536 L -2.203 -3.810 L -2.203 -4.085 L -2.203 -4.360 L -2.203 -4.634 L -2.203 -4.909 L -2.203 -5.183 L -2.203 -5.458 L -2.203 -5.733 L -2.203 -6.007 L -2.203 -6.282 L -2.203 -6.557 L -2.203 -6.831 L -2.203 -7.106 L -2.203 -7.381 L -2.203 -7.655 L -2.203 -7.930 L -2.203 -8.204 L -2.203 -8.479 L -2.203 -8.754 L -2.203 -9.028 L -2.203 -9.303 L -2.203 -9.578 L -2.203 -9.852 L -2.203 -10.127 Z" fill="url(#grain)" stroke="#3a1d10" stroke-width="0.18" stroke-linejoin="round"/>
  <path d="M 140.847 -9.786 L 140.843 -9.910 L 140.831 -10.034 L 140.810 -10.157 L 140.782 -10.279 L 140.746 -10.398 L 140.702 -10.515 L 140.650 -10.628 L 140.592 -10.738 L 140.526 -10.844 L 140.453 -10.945 L 140.374 -11.042 L 140.289 -11.133 L 140.198 -11.218 L 140.102 -11.297 L 140.000 -11.370 L 139.894 -11.435 L 139.784 -11.494 L 139.671 -11.546 L 139.554 -11.590 L 139.435 -11.626 L 139.314 -11.654 L 139.191 -11.674 L 139.066 -11.687 L 138.942 -11.691 L 133.333 -11.691 L 127.724 -11.691 L 122.114 -11.691 L 116.505 -11.691 L 110.896 -11.691 L 105.287 -11.691 L 99.678 -11.691 L 94.069 -11.691 L 88.459 -11.691 L 82.850 -11.691 L 77.241 -11.691 L 71.632 -11.691 L 66.023 -11.691 L 60.414 -11.691 L 54.804 -11.691 L 49.195 -11.691 L 43.586 -11.691 L 37.977 -11.691 L 32.368 -11.691 L 26.759 -11.691 L 21.149 -11.691 L 15.540 -11.691 L 9.931 -11.691 L 4.322 -11.691 L 4.197 -11.687 L 4.073 -11.674 L 3.950 -11.654 L 3.829 -11.626 L 3.710 -11.590 L 3.593 -11.546 L 3.479 -11.494 L 3.369 -11.435 L 3.263 -11.370 L 3.162 -11.297 L 3.066 -11.218 L 2.975 -11.133 L 2.890 -11.042 L 2.811 -10.945 L 2.738 -10.844 L 2.672 -10.738 L 2.613 -10.628 L 2.562 -10.515 L 2.518 -10.398 L 2.482 -10.279 L 2.453 -10.157 L 2.433 -10.034 L 2.421 -9.910 L 2.417 -9.786 L 2.417 -9.511 L 2.417 -9.236 L 2.417 -8.962 L 2.417 -8.687 L 2.417 -8.412 L 2.417 -8.138 L 2.417 -7.863 L 2.417 -7.589 L 2.417 -7.314 L 2.417 -7.039 L 2.417 -6.765 L 2.417 -6.490 L 2.417 -6.215 L 2.417 -5.941 L 2.417 -5.666 L 2.417 -5.391 L 2.417 -5.117 L 2.417 -4.842 L 2.417 -4.567 L 2.417 -4.293 L 2.417 -4.018 L 2.417 -3.744 L 2.417 -3.469 L 2.417 -3.194 L 2.418 -3.153 L 2.422 -3.111 L 2.429 -3.070 L 2.438 -3.030 L 2.451 -2.990 L 2.465 -2.951 L 2.482 -2.913 L 2.502 -2.877 L 2.524 -2.842 L 2.548 -2.808 L 2.574 -2.776 L 2.603 -2.745 L 2.633 -2.717 L 2.665 -2.691 L 2.699 -2.666 L 2.734 -2.644 L 2.771 -2.625 L 2.809 -2.608 L 2.848 -2.593 L 2.888 -2.581 L 2.928 -2.572 L 2.969 -2.565 L 3.010 -2.561 L 3.052 -2.559 L 3.237 -2.559 L 3.422 -2.559 L 3.607 -2.559 L 3.793 -2.559 L 3.978 -2.559 L 4.163 -2.559 L 4.348 -2.559 L 4.534 -2.559 L 4.719 -2.559 L 4.904 -2.559 L 5.089 -2.559 L 5.274 -2.559 L 5.460 -2.559 L 5.645 -2.559 L 5.830 -2.559 L 6.015 -2.559 L 6.200 -2.559 L 6.386 -2.559 L 6.571 -2.559 L 6.756 -2.559 L 6.941 -2.559 L 7.126 -2.559 L 7.312 -2.559 L 7.497 -2.559 L 7.497 -2.533 L 7.497 -2.506 L 7.497 -2.480 L 7.497 -2.453 L 7.497 -2.427 L 7.497 -2.401 L 7.497 -2.374 L 7.497 -2.348 L 7.497 -2.321 L 7.497 -2.295 L 7.497 -2.268 L 7.497 -2.242 L 7.497 -2.215 L 7.497 -2.189 L 7.497 -2.162 L 7.497 -2.136 L 7.497 -2.110 L 7.497 -2.083 L 7.497 -2.057 L 7.497 -2.030 L 7.497 -2.004 L 7.497 -1.977 L 7.497 -1.951 L 7.497 -1.924 L 7.682 -1.924 L 7.867 -1.924 L 8.052 -1.924 L 8.238 -1.924 L 8.423 -1.924 L 8.608 -1.924 L 8.793 -1.924 L 8.979 -1.924 L 9.164 -1.924 L 9.349 -1.924 L 9.534 -1.924 L 9.719 -1.924 L 9.905 -1.924 L 10.090 -1.924 L 10.275 -1.924 L 10.460 -1.924 L 10.645 -1.924 L 10.831 -1.924 L 11.016 -1.924 L 11.201 -1.924 L 11.386 -1.924 L 11.571 -1.924 L 11.757 -1.924 L 11.942 -1.924 L 12.025 -1.922 L 12.108 -1.913 L 12.190 -1.900 L 12.271 -1.881 L 12.350 -1.857 L 12.428 -1.828 L 12.504 -1.793 L 12.577 -1.754 L 12.647 -1.710 L 12.715 -1.662 L 12.779 -1.609 L 12.840 -1.552 L 12.897 -1.492 L 12.949 -1.427 L 12.998 -1.360 L 13.042 -1.289 L 13.081 -1.216 L 13.115 -1.140 L 13.144 -1.063 L 13.169 -0.983 L 13.187 -0.902 L 13.201 -0.820 L 13.209 -0.737 L 13.212 -0.654 L 13.212 -0.569 L 13.212 -0.483 L 13.212 -0.397 L 13.212 -0.311 L 13.212 -0.226 L 13.212 -0.140 L 13.212 -0.054 L 13.212 0.031 L 13.212 0.117 L 13.212 0.203 L 13.212 0.289 L 13.212 0.374 L 13.212 0.460 L 13.212 0.546 L 13.212 0.632 L 13.212 0.717 L 13.212 0.803 L 13.212 0.889 L 13.212 0.974 L 13.212 1.060 L 13.212 1.146 L 13.212 1.232 L 13.212 1.317 L 13.212 1.403 L 13.209 1.486 L 13.201 1.569 L 13.187 1.651 L 13.169 1.732 L 13.144 1.811 L 13.115 1.889 L 13.081 1.965 L 13.042 2.038 L 12.998 2.109 L 12.949 2.176 L 12.897 2.240 L 12.840 2.301 L 12.779 2.358 L 12.715 2.411 L 12.647 2.459 L 12.577 2.503 L 12.504 2.542 L 12.428 2.576 L 12.350 2.606 L 12.271 2.630 L 12.190 2.649 L 12.108 2.662 L 12.025 2.670 L 11.942 2.673 L 11.571 2.673 L 11.201 2.673 L 10.831 2.673 L 10.460 2.673 L 10.090 2.673 L 9.719 2.673 L 9.349 2.673 L 8.979 2.673 L 8.608 2.673 L 8.238 2.673 L 7.867 2.673 L 7.497 2.673 L 7.126 2.673 L 6.756 2.673 L 6.386 2.673 L 6.015 2.673 L 5.645 2.673 L 5.274 2.673 L 4.904 2.673 L 4.534 2.673 L 4.163 2.673 L 3.793 2.673 L 3.422 2.673 L 3.052 2.673 L 2.969 2.676 L 2.886 2.684 L 2.804 2.698 L 2.723 2.716 L 2.644 2.740 L 2.566 2.770 L 2.490 2.804 L 2.417 2.843 L 2.346 2.887 L 2.279 2.936 L 2.214 2.988 L 2.154 3.045 L 2.097 3.106 L 2.044 3.170 L 1.996 3.238 L 1.952 3.308 L 1.913 3.381 L 1.879 3.457 L 1.849 3.535 L 1.825 3.614 L 1.806 3.695 L 1.793 3.777 L 1.785 3.860 L 1.782 3.943 L 1.782 3.988 L 1.782 4.033 L 1.782 4.078 L 1.782 4.123 L 1.782 4.168 L 1.782 4.213 L 1.782 4.257 L 1.782 4.302 L 1.782 4.347 L 1.782 4.392 L 1.782 4.437 L 1.782 4.482 L 1.782 4.527 L 1.782 4.572 L 1.782 4.617 L 1.782 4.662 L 1.782 4.707 L 1.782 4.751 L 1.782 4.796 L 1.782 4.841 L 1.782 4.886 L 1.782 4.931 L 1.782 4.976 L 1.782 5.021 L 1.783 5.062 L 1.785 5.104 L 1.788 5.145 L 1.793 5.187 L 1.799 5.228 L 1.806 5.269 L 1.815 5.309 L 1.825 5.350 L 1.837 5.390 L 1.849 5.429 L 1.863 5.468 L 1.879 5.507 L 1.895 5.545 L 1.913 5.583 L 1.932 5.620 L 1.952 5.656 L 1.973 5.692 L 1.996 5.726 L 2.020 5.761 L 2.044 5.794 L 2.070 5.827 L 2.097 5.858 L 2.125 5.889 L 2.154 5.919 L 2.437 6.202 L 2.721 6.486 L 3.004 6.769 L 3.287 7.052 L 3.571 7.336 L 3.854 7.619 L 4.137 7.902 L 4.421 8.186 L 4.704 8.469 L 4.987 8.752 L 5.271 9.036 L 5.554 9.319 L 5.837 9.602 L 6.121 9.886 L 6.404 10.169 L 6.687 10.452 L 6.971 10.736 L 7.254 11.019 L 7.537 11.302 L 7.821 11.586 L 8.104 11.869 L 8.387 12.152 L 8.671 12.436 L 8.954 12.719 L 8.984 12.748 L 9.015 12.776 L 9.046 12.803 L 9.079 12.829 L 9.112 12.853 L 9.146 12.877 L 9.181 12.900 L 9.217 12.921 L 9.253 12.941 L 9.290 12.960 L 9.328 12.978 L 9.366 12.994 L 9.405 13.010 L 9.444 13.024 L 9.483 13.036 L 9.523 13.048 L 9.564 13.058 L 9.604 13.067 L 9.645 13.074 L 9.686 13.080 L 9.728 13.085 L 9.769 13.088 L 9.810 13.090 L 9.852 13.091 L 15.000 13.091 L 20.149 13.091 L 25.297 13.091 L 30.445 13.091 L 35.594 13.091 L 40.742 13.091 L 45.890 13.091 L 51.039 13.091 L 56.187 13.091 L 61.335 13.091 L 66.484 13.091 L 71.632 13.091 L 76.780 13.091 L 81.929 13.091 L 87.077 13.091 L 92.225 13.091 L 97.373 13.091 L 102.522 13.091 L 107.670 13.091 L 112.818 13.091 L 117.967 13.091 L 123.115 13.091 L 128.263 13.091 L 133.412 13.091 L 133.453 13.090 L 133.495 13.088 L 133.536 13.085 L 133.577 13.080 L 133.619 13.074 L 133.659 13.067 L 133.700 13.058 L 133.740 13.048 L 133.780 13.036 L 133.820 13.024 L 133.859 13.010 L 133.898 12.994 L 133.936 12.978 L 133.973 12.960 L 134.010 12.941 L 134.047 12.921 L 134.082 12.900 L 134.117 12.877 L 134.151 12.853 L 134.185 12.829 L 134.217 12.803 L 134.249 12.776 L 134.280 12.748 L 134.310 12.719 L 134.593 12.436 L 134.876 12.152 L 135.160 11.869 L 135.443 11.586 L 135.726 11.302 L 136.010 11.019 L 136.293 10.736 L 136.576 10.452 L 136.860 10.169 L 137.143 9.886 L 137.426 9.602 L 137.710 9.319 L 137.993 9.036 L 138.276 8.752 L 138.560 8.469 L 138.843 8.186 L 139.127 7.902 L 139.410 7.619 L 139.693 7.336 L 139.977 7.052 L 140.260 6.769 L 140.543 6.486 L 140.827 6.202 L 141.110 5.919 L 141.139 5.889 L 141.167 5.858 L 141.194 5.827 L 141.219 5.794 L 141.244 5.761 L 141.268 5.726 L 141.290 5.692 L 141.312 5.656 L 141.332 5.620 L 141.351 5.583 L 141.369 5.545 L 141.385 5.507 L 141.400 5.468 L 141.414 5.429 L 141.427 5.390 L 141.439 5.350 L 141.449 5.309 L 141.457 5.269 L 141.465 5.228 L 141.471 5.187 L 141.476 5.145 L 141.479 5.104 L 141.481 5.062 L 141.482 5.021 L 141.482 4.976 L 141.482 4.931 L 141.482 4.886 L 141.482 4.841 L 141.482 4.796 L 141.482 4.751 L 141.482 4.707 L 141.482 4.662 L 141.482 4.617 L 141.482 4.572 L 141.482 4.527 L 141.482 4.482 L 141.482 4.437 L 141.482 4.392 L 141.482 4.347 L 141.482 4.302 L 141.482 4.257 L 141.482 4.213 L 141.482 4.168 L 141.482 4.123 L 141.482 4.078 L 141.482 4.033 L 141.482 3.988 L 141.482 3.943 L 141.479 3.860 L 141.471 3.777 L 141.457 3.695 L 141.439 3.614 L 141.414 3.535 L 141.385 3.457 L 141.351 3.381 L 141.312 3.308 L 141.268 3.238 L 141.219 3.170 L 141.167 3.106 L 141.110 3.045 L 141.049 2.988 L 140.985 2.936 L 140.917 2.887 L 140.847 2.843 L 140.774 2.804 L 140.698 2.770 L 140.620 2.740 L 140.541 2.716 L 140.460 2.698 L 140.378 2.684 L 140.295 2.676 L 140.212 2.673 L 139.841 2.673 L 139.471 2.673 L 139.101 2.673 L 138.730 2.673 L 138.360 2.673 L 137.989 2.673 L 137.619 2.673 L 137.249 2.673 L 136.878 2.673 L 136.508 2.673 L 136.137 2.673 L 135.767 2.673 L 135.396 2.673 L 135.026 2.673 L 134.656 2.673 L 134.285 2.673 L 133.915 2.673 L 133.544 2.673 L 133.174 2.673 L 132.804 2.673 L 132.433 2.673 L 132.063 2.673 L 131.692 2.673 L 131.322 2.673 L 131.239 2.670 L 131.156 2.662 L 131.074 2.649 L 130.993 2.630 L 130.914 2.606 L 130.836 2.576 L 130.760 2.542 L 130.687 2.503 L 130.616 2.459 L 130.549 2.411 L 130.484 2.358 L 130.424 2.301 L 130.367 2.240 L 130.314 2.176 L 130.266 2.109 L 130.222 2.038 L 130.183 1.965 L 130.149 1.889 L 130.119 1.811 L 130.095 1.732 L 130.076 1.651 L 130.063 1.569 L 130.055 1.486 L 130.052 1.403 L 130.052 1.317 L 130.052 1.232 L 130.052 1.146 L 130.052 1.060 L 130.052 0.974 L 130.052 0.889 L 130.052 0.803 L 130.052 0.717 L 130.052 0.632 L 130.052 0.546 L 130.052 0.460 L 130.052 0.374 L 130.052 0.289 L 130.052 0.203 L 130.052 0.117 L 130.052 0.031 L 130.052 -0.054 L 130.052 -0.140 L 130.052 -0.226 L 130.052 -0.311 L 130.052 -0.397 L 130.052 -0.483 L 130.052 -0.569 L 130.052 -0.654 L 130.055 -0.737 L 130.063 -0.820 L 130.076 -0.902 L 130.095 -0.983 L 130.119 -1.063 L 130.149 -1.140 L 130.183 -1.216 L 130.222 -1.289 L 130.266 -1.360 L 130.314 -1.427 L 130.367 -1.492 L 130.424 -1.552 L 130.484 -1.609 L 130.549 -1.662 L 130.616 -1.710 L 130.687 -1.754 L 130.760 -1.793 L 130.836 -1.828 L 130.914 -1.857 L 130.993 -1.881 L 131.074 -1.900 L 131.156 -1.913 L 131.239 -1.922 L 131.322 -1.924 L 131.507 -1.924 L 131.692 -1.924 L 131.877 -1.924 L 132.063 -1.924 L 132.248 -1.924 L 132.433 -1.924 L 132.618 -1.924 L 132.804 -1.924 L 132.989 -1.924 L 133.174 -1.924 L 133.359 -1.924 L 133.544 -1.924 L 133.730 -1.924 L 133.915 -1.924 L 134.100 -1.924 L 134.285 -1.924 L 134.470 -1.924 L 134.656 -1.924 L 134.841 -1.924 L 135.026 -1.924 L 135.211 -1.924 L 135.396 -1.924 L 135.582 -1.924 L 135.767 -1.924 L 135.767 -1.951 L 135.767 -1.977 L 135.767 -2.004 L 135.767 -2.030 L 135.767 -2.057 L 135.767 -2.083 L 135.767 -2.110 L 135.767 -2.136 L 135.767 -2.162 L 135.767 -2.189 L 135.767 -2.215 L 135.767 -2.242 L 135.767 -2.268 L 135.767 -2.295 L 135.767 -2.321 L 135.767 -2.348 L 135.767 -2.374 L 135.767 -2.401 L 135.767 -2.427 L 135.767 -2.453 L 135.767 -2.480 L 135.767 -2.506 L 135.767 -2.533 L 135.767 -2.559 L 135.952 -2.559 L 136.137 -2.559 L 136.322 -2.559 L 136.508 -2.559 L 136.693 -2.559 L 136.878 -2.559 L 137.063 -2.559 L 137.249 -2.559 L 137.434 -2.559 L 137.619 -2.559 L 137.804 -2.559 L 137.989 -2.559 L 138.175 -2.559 L 138.360 -2.559 L 138.545 -2.559 L 138.730 -2.559 L 138.915 -2.559 L 139.101 -2.559 L 139.286 -2.559 L 139.471 -2.559 L 139.656 -2.559 L 139.841 -2.559 L 140.027 -2.559 L 140.212 -2.559 L 140.253 -2.561 L 140.295 -2.565 L 140.336 -2.572 L 140.376 -2.581 L 140.416 -2.593 L 140.455 -2.608 L 140.493 -2.625 L 140.529 -2.644 L 140.565 -2.666 L 140.598 -2.691 L 140.631 -2.717 L 140.661 -2.745 L 140.689 -2.776 L 140.716 -2.808 L 140.740 -2.842 L 140.762 -2.877 L 140.781 -2.913 L 140.799 -2.951 L 140.813 -2.990 L 140.825 -3.030 L 140.835 -3.070 L 140.841 -3.111 L 140.846 -3.153 L 140.847 -3.194 L 140.847 -3.469 L 140.847 -3.744 L 140.847 -4.018 L 140.847 -4.293 L 140.847 -4.567 L 140.847 -4.842 L 140.847 -5.117 L 140.847 -5.391 L 140.847 -5.666 L 140.847 -5.941 L 140.847 -6.215 L 140.847 -6.490 L 140.847 -6.765 L 140.847 -7.039 L 140.847 -7.314 L 140.847 -7.589 L 140.847 -7.863 L 140.847 -8.138 L 140.847 -8.412 L 140.847 -8.687 L 140.847 -8.962 L 140.847 -9.236 L 140.847 -9.511 L 140.847 -9.786 Z" fill="url(#grain)" stroke="#3a1d10" stroke-width="0.18" stroke-linejoin="round"/>

  <!-- ASA cap layer accent on top of each board (~1mm thick visual) -->
  <rect x="-55.00" y="-12.03" width="110.00" height="0.9" fill="url(#adxCap)" opacity="0.7"/>

  <!-- Seal (Dexerdry TPE) -->
  <path d="M 1.583 4.663 L 1.583 4.659 L 1.583 4.656 L 1.583 4.652 L 1.583 4.649 L 1.583 4.645 L 1.584 4.642 L 1.584 4.638 L 1.584 4.635 L 1.584 4.631 L 1.584 4.628 L 1.584 4.624 L 1.584 4.621 L 1.584 4.617 L 1.585 4.614 L 1.585 4.610 L 1.585 4.607 L 1.585 4.603 L 1.586 4.600 L 1.586 4.596 L 1.586 4.593 L 1.587 4.590 L 1.587 4.586 L 1.587 4.583 L 1.587 4.579 L 1.587 4.484 L 1.587 4.388 L 1.587 4.292 L 1.587 4.197 L 1.587 4.101 L 1.587 4.006 L 1.587 3.910 L 1.587 3.815 L 1.587 3.719 L 1.587 3.624 L 1.587 3.528 L 1.587 3.433 L 1.587 3.337 L 1.587 3.241 L 1.587 3.146 L 1.587 3.050 L 1.587 2.955 L 1.587 2.859 L 1.587 2.764 L 1.587 2.668 L 1.587 2.573 L 1.587 2.477 L 1.587 2.382 L 1.587 2.286 L 1.719 2.279 L 1.851 2.272 L 1.982 2.265 L 2.114 2.259 L 2.246 2.252 L 2.377 2.245 L 2.509 2.238 L 2.641 2.231 L 2.772 2.224 L 2.904 2.217 L 3.036 2.211 L 3.167 2.204 L 3.299 2.197 L 3.431 2.190 L 3.562 2.183 L 3.694 2.176 L 3.826 2.169 L 3.957 2.162 L 4.089 2.156 L 4.221 2.149 L 4.352 2.142 L 4.484 2.135 L 4.616 2.128 L 4.747 2.121 L 4.747 2.168 L 4.747 2.214 L 4.747 2.261 L 4.747 2.308 L 4.747 2.354 L 4.747 2.401 L 4.747 2.447 L 4.747 2.494 L 4.747 2.540 L 4.747 2.587 L 4.747 2.633 L 4.747 2.680 L 4.747 2.726 L 4.747 2.773 L 4.747 2.820 L 4.747 2.866 L 4.747 2.913 L 4.747 2.959 L 4.747 3.006 L 4.747 3.052 L 4.747 3.099 L 4.747 3.145 L 4.747 3.192 L 4.747 3.239 L 4.787 3.190 L 4.828 3.141 L 4.868 3.093 L 4.908 3.044 L 4.948 2.995 L 4.989 2.947 L 5.029 2.898 L 5.069 2.849 L 5.109 2.801 L 5.149 2.752 L 5.190 2.703 L 5.230 2.655 L 5.270 2.606 L 5.310 2.557 L 5.351 2.509 L 5.391 2.460 L 5.431 2.412 L 5.471 2.363 L 5.512 2.314 L 5.552 2.266 L 5.592 2.217 L 5.632 2.168 L 5.672 2.120 L 5.713 2.071 L 5.736 2.070 L 5.759 2.068 L 5.782 2.067 L 5.806 2.065 L 5.829 2.064 L 5.852 2.062 L 5.876 2.061 L 5.899 2.060 L 5.922 2.058 L 5.945 2.057 L 5.969 2.055 L 5.992 2.054 L 6.015 2.052 L 6.038 2.051 L 6.062 2.050 L 6.085 2.048 L 6.108 2.047 L 6.132 2.045 L 6.155 2.044 L 6.178 2.042 L 6.201 2.041 L 6.225 2.040 L 6.248 2.038 L 6.271 2.037 L 6.271 2.087 L 6.271 2.137 L 6.271 2.187 L 6.271 2.237 L 6.271 2.287 L 6.271 2.337 L 6.271 2.387 L 6.271 2.437 L 6.271 2.487 L 6.271 2.537 L 6.271 2.588 L 6.271 2.638 L 6.271 2.688 L 6.271 2.738 L 6.271 2.788 L 6.271 2.838 L 6.271 2.888 L 6.271 2.938 L 6.271 2.988 L 6.271 3.038 L 6.271 3.088 L 6.271 3.138 L 6.271 3.188 L 6.271 3.238 L 6.304 3.199 L 6.337 3.159 L 6.370 3.119 L 6.402 3.080 L 6.435 3.040 L 6.468 3.000 L 6.501 2.961 L 6.534 2.921 L 6.567 2.881 L 6.599 2.842 L 6.632 2.802 L 6.665 2.762 L 6.698 2.723 L 6.731 2.683 L 6.763 2.643 L 6.796 2.603 L 6.829 2.564 L 6.862 2.524 L 6.895 2.484 L 6.928 2.445 L 6.960 2.405 L 6.993 2.365 L 7.026 2.326 L 7.059 2.286 L 7.069 2.274 L 7.079 2.261 L 7.089 2.249 L 7.099 2.236 L 7.109 2.224 L 7.119 2.212 L 7.129 2.199 L 7.139 2.187 L 7.149 2.174 L 7.159 2.162 L 7.169 2.150 L 7.179 2.137 L 7.189 2.125 L 7.199 2.112 L 7.209 2.100 L 7.219 2.088 L 7.229 2.075 L 7.239 2.063 L 7.249 2.050 L 7.259 2.038 L 7.269 2.026 L 7.279 2.013 L 7.289 2.001 L 7.299 1.988 L 7.319 1.987 L 7.340 1.986 L 7.361 1.985 L 7.381 1.984 L 7.402 1.983 L 7.423 1.982 L 7.444 1.981 L 7.464 1.980 L 7.485 1.979 L 7.506 1.978 L 7.526 1.976 L 7.547 1.975 L 7.568 1.974 L 7.588 1.973 L 7.609 1.972 L 7.630 1.971 L 7.650 1.970 L 7.671 1.969 L 7.692 1.968 L 7.712 1.967 L 7.733 1.966 L 7.754 1.965 L 7.775 1.964 L 7.795 1.962 L 7.795 2.016 L 7.795 2.069 L 7.795 2.122 L 7.795 2.175 L 7.795 2.228 L 7.795 2.281 L 7.795 2.335 L 7.795 2.388 L 7.795 2.441 L 7.795 2.494 L 7.795 2.547 L 7.795 2.600 L 7.795 2.654 L 7.795 2.707 L 7.795 2.760 L 7.795 2.813 L 7.795 2.866 L 7.795 2.919 L 7.795 2.973 L 7.795 3.026 L 7.795 3.079 L 7.795 3.132 L 7.795 3.185 L 7.795 3.239 L 7.841 3.183 L 7.887 3.127 L 7.933 3.072 L 7.979 3.016 L 8.025 2.961 L 8.071 2.905 L 8.117 2.850 L 8.163 2.794 L 8.209 2.738 L 8.255 2.683 L 8.301 2.627 L 8.347 2.572 L 8.393 2.516 L 8.438 2.461 L 8.484 2.405 L 8.530 2.350 L 8.576 2.294 L 8.622 2.238 L 8.668 2.183 L 8.714 2.127 L 8.760 2.072 L 8.806 2.016 L 8.852 1.961 L 8.898 1.905 L 8.910 1.905 L 8.923 1.905 L 8.935 1.905 L 8.947 1.905 L 8.960 1.905 L 8.972 1.905 L 8.984 1.905 L 8.997 1.905 L 9.009 1.905 L 9.022 1.905 L 9.034 1.905 L 9.046 1.905 L 9.059 1.905 L 9.071 1.905 L 9.083 1.905 L 9.096 1.905 L 9.108 1.905 L 9.121 1.905 L 9.133 1.905 L 9.145 1.905 L 9.158 1.905 L 9.170 1.905 L 9.182 1.905 L 9.195 1.905 L 9.443 1.889 L 9.688 1.840 L 9.924 1.760 L 10.147 1.650 L 10.354 1.511 L 10.542 1.347 L 10.706 1.160 L 10.845 0.953 L 10.955 0.729 L 11.035 0.493 L 11.084 0.249 L 11.100 0.000 L 11.084 -0.249 L 11.035 -0.493 L 10.955 -0.729 L 10.845 -0.952 L 10.706 -1.160 L 10.542 -1.347 L 10.354 -1.511 L 10.147 -1.650 L 9.924 -1.760 L 9.688 -1.840 L 9.443 -1.889 L 9.195 -1.905 L 9.182 -1.905 L 9.170 -1.905 L 9.158 -1.905 L 9.145 -1.905 L 9.133 -1.905 L 9.121 -1.905 L 9.108 -1.905 L 9.096 -1.905 L 9.083 -1.905 L 9.071 -1.905 L 9.059 -1.905 L 9.046 -1.905 L 9.034 -1.905 L 9.022 -1.905 L 9.009 -1.905 L 8.997 -1.905 L 8.984 -1.905 L 8.972 -1.905 L 8.960 -1.905 L 8.947 -1.905 L 8.935 -1.905 L 8.923 -1.905 L 8.910 -1.905 L 8.898 -1.905 L 8.852 -1.961 L 8.806 -2.016 L 8.760 -2.072 L 8.714 -2.127 L 8.668 -2.183 L 8.622 -2.238 L 8.576 -2.294 L 8.530 -2.350 L 8.484 -2.405 L 8.438 -2.461 L 8.393 -2.516 L 8.347 -2.572 L 8.301 -2.627 L 8.255 -2.683 L 8.209 -2.738 L 8.163 -2.794 L 8.117 -2.850 L 8.071 -2.905 L 8.025 -2.961 L 7.979 -3.016 L 7.933 -3.072 L 7.887 -3.127 L 7.841 -3.183 L 7.795 -3.239 L 7.795 -3.185 L 7.795 -3.132 L 7.795 -3.079 L 7.795 -3.026 L 7.795 -2.973 L 7.795 -2.919 L 7.795 -2.866 L 7.795 -2.813 L 7.795 -2.760 L 7.795 -2.707 L 7.795 -2.654 L 7.795 -2.600 L 7.795 -2.547 L 7.795 -2.494 L 7.795 -2.441 L 7.795 -2.388 L 7.795 -2.335 L 7.795 -2.281 L 7.795 -2.228 L 7.795 -2.175 L 7.795 -2.122 L 7.795 -2.069 L 7.795 -2.016 L 7.795 -1.962 L 7.775 -1.964 L 7.754 -1.965 L 7.733 -1.966 L 7.712 -1.967 L 7.692 -1.968 L 7.671 -1.969 L 7.650 -1.970 L 7.630 -1.971 L 7.609 -1.972 L 7.588 -1.973 L 7.568 -1.974 L 7.547 -1.975 L 7.526 -1.976 L 7.506 -1.978 L 7.485 -1.979 L 7.464 -1.980 L 7.444 -1.981 L 7.423 -1.982 L 7.402 -1.983 L 7.381 -1.984 L 7.361 -1.985 L 7.340 -1.986 L 7.319 -1.987 L 7.299 -1.988 L 7.289 -2.001 L 7.279 -2.013 L 7.269 -2.026 L 7.259 -2.038 L 7.249 -2.050 L 7.239 -2.063 L 7.229 -2.075 L 7.219 -2.088 L 7.209 -2.100 L 7.199 -2.112 L 7.189 -2.125 L 7.179 -2.137 L 7.169 -2.150 L 7.159 -2.162 L 7.149 -2.174 L 7.139 -2.187 L 7.129 -2.199 L 7.119 -2.212 L 7.109 -2.224 L 7.099 -2.236 L 7.089 -2.249 L 7.079 -2.261 L 7.069 -2.274 L 7.059 -2.286 L 7.026 -2.326 L 6.993 -2.365 L 6.960 -2.405 L 6.928 -2.445 L 6.895 -2.484 L 6.862 -2.524 L 6.829 -2.564 L 6.796 -2.603 L 6.763 -2.643 L 6.731 -2.683 L 6.698 -2.723 L 6.665 -2.762 L 6.632 -2.802 L 6.599 -2.842 L 6.567 -2.881 L 6.534 -2.921 L 6.501 -2.961 L 6.468 -3.000 L 6.435 -3.040 L 6.402 -3.080 L 6.370 -3.119 L 6.337 -3.159 L 6.304 -3.199 L 6.271 -3.238 L 6.271 -3.188 L 6.271 -3.138 L 6.271 -3.088 L 6.271 -3.038 L 6.271 -2.988 L 6.271 -2.938 L 6.271 -2.888 L 6.271 -2.838 L 6.271 -2.788 L 6.271 -2.738 L 6.271 -2.688 L 6.271 -2.638 L 6.271 -2.588 L 6.271 -2.537 L 6.271 -2.487 L 6.271 -2.437 L 6.271 -2.387 L 6.271 -2.337 L 6.271 -2.287 L 6.271 -2.237 L 6.271 -2.187 L 6.271 -2.137 L 6.271 -2.087 L 6.271 -2.037 L 6.248 -2.038 L 6.225 -2.040 L 6.201 -2.041 L 6.178 -2.042 L 6.155 -2.044 L 6.132 -2.045 L 6.108 -2.047 L 6.085 -2.048 L 6.062 -2.050 L 6.038 -2.051 L 6.015 -2.052 L 5.992 -2.054 L 5.969 -2.055 L 5.945 -2.057 L 5.922 -2.058 L 5.899 -2.060 L 5.876 -2.061 L 5.852 -2.062 L 5.829 -2.064 L 5.806 -2.065 L 5.782 -2.067 L 5.759 -2.068 L 5.736 -2.070 L 5.713 -2.071 L 5.672 -2.120 L 5.632 -2.168 L 5.592 -2.217 L 5.552 -2.266 L 5.512 -2.314 L 5.471 -2.363 L 5.431 -2.412 L 5.391 -2.460 L 5.351 -2.509 L 5.310 -2.557 L 5.270 -2.606 L 5.230 -2.655 L 5.190 -2.703 L 5.149 -2.752 L 5.109 -2.801 L 5.069 -2.849 L 5.029 -2.898 L 4.989 -2.947 L 4.948 -2.995 L 4.908 -3.044 L 4.868 -3.093 L 4.828 -3.141 L 4.787 -3.190 L 4.747 -3.238 L 4.747 -3.192 L 4.747 -3.145 L 4.747 -3.099 L 4.747 -3.052 L 4.747 -3.006 L 4.747 -2.959 L 4.747 -2.913 L 4.747 -2.866 L 4.747 -2.820 L 4.747 -2.773 L 4.747 -2.726 L 4.747 -2.680 L 4.747 -2.633 L 4.747 -2.587 L 4.747 -2.540 L 4.747 -2.494 L 4.747 -2.447 L 4.747 -2.401 L 4.747 -2.354 L 4.747 -2.308 L 4.747 -2.261 L 4.747 -2.214 L 4.747 -2.168 L 4.747 -2.121 L 4.616 -2.128 L 4.484 -2.135 L 4.352 -2.142 L 4.221 -2.149 L 4.089 -2.156 L 3.957 -2.162 L 3.826 -2.169 L 3.694 -2.176 L 3.562 -2.183 L 3.431 -2.190 L 3.299 -2.197 L 3.167 -2.204 L 3.036 -2.211 L 2.904 -2.217 L 2.772 -2.224 L 2.641 -2.231 L 2.509 -2.238 L 2.377 -2.245 L 2.246 -2.252 L 2.114 -2.259 L 1.982 -2.265 L 1.851 -2.272 L 1.719 -2.279 L 1.587 -2.286 L 1.587 -2.382 L 1.587 -2.477 L 1.587 -2.573 L 1.587 -2.668 L 1.587 -2.764 L 1.587 -2.859 L 1.587 -2.955 L 1.587 -3.050 L 1.587 -3.146 L 1.587 -3.241 L 1.587 -3.337 L 1.587 -3.433 L 1.587 -3.528 L 1.587 -3.624 L 1.587 -3.719 L 1.587 -3.815 L 1.587 -3.910 L 1.587 -4.006 L 1.587 -4.101 L 1.587 -4.197 L 1.587 -4.292 L 1.587 -4.388 L 1.587 -4.484 L 1.587 -4.579 L 1.587 -4.583 L 1.587 -4.586 L 1.587 -4.590 L 1.586 -4.593 L 1.586 -4.596 L 1.586 -4.600 L 1.585 -4.603 L 1.585 -4.607 L 1.585 -4.610 L 1.585 -4.614 L 1.584 -4.617 L 1.584 -4.621 L 1.584 -4.624 L 1.584 -4.628 L 1.584 -4.631 L 1.584 -4.635 L 1.584 -4.638 L 1.584 -4.642 L 1.583 -4.645 L 1.583 -4.649 L 1.583 -4.652 L 1.583 -4.656 L 1.583 -4.659 L 1.583 -4.663 L 1.583 -4.664 L 1.583 -4.664 L 1.583 -4.665 L 1.583 -4.666 L 1.583 -4.667 L 1.583 -4.667 L 1.583 -4.668 L 1.583 -4.669 L 1.583 -4.670 L 1.583 -4.670 L 1.583 -4.671 L 1.583 -4.672 L 1.583 -4.673 L 1.583 -4.673 L 1.583 -4.674 L 1.583 -4.675 L 1.583 -4.676 L 1.583 -4.677 L 1.583 -4.677 L 1.583 -4.678 L 1.583 -4.679 L 1.583 -4.680 L 1.583 -4.680 L 1.583 -4.681 L 1.586 -4.714 L 1.590 -4.747 L 1.598 -4.779 L 1.608 -4.811 L 1.620 -4.842 L 1.635 -4.871 L 1.653 -4.899 L 1.672 -4.926 L 1.694 -4.951 L 1.717 -4.974 L 1.743 -4.996 L 1.770 -5.015 L 1.798 -5.032 L 1.828 -5.046 L 1.859 -5.058 L 1.891 -5.068 L 1.923 -5.075 L 1.956 -5.079 L 1.989 -5.080 L 2.022 -5.079 L 2.055 -5.075 L 2.088 -5.069 L 2.120 -5.060 L 2.151 -5.048 L 2.238 -5.020 L 2.329 -5.007 L 2.420 -5.011 L 2.510 -5.030 L 2.595 -5.065 L 2.672 -5.114 L 2.740 -5.175 L 2.796 -5.248 L 2.838 -5.329 L 2.865 -5.417 L 2.877 -5.508 L 2.873 -5.599 L 2.853 -5.688 L 2.818 -5.773 L 2.768 -5.850 L 2.706 -5.917 L 2.633 -5.973 L 2.551 -6.014 L 2.464 -6.041 L 2.373 -6.052 L 2.282 -6.048 L 2.192 -6.027 L 2.108 -5.991 L 2.031 -5.941 L 2.011 -5.926 L 1.988 -5.913 L 1.965 -5.902 L 1.941 -5.894 L 1.916 -5.888 L 1.891 -5.884 L 1.866 -5.882 L 1.840 -5.883 L 1.815 -5.886 L 1.790 -5.892 L 1.765 -5.900 L 1.742 -5.910 L 1.719 -5.922 L 1.698 -5.936 L 1.678 -5.952 L 1.660 -5.970 L 1.644 -5.990 L 1.629 -6.011 L 1.617 -6.033 L 1.606 -6.057 L 1.598 -6.081 L 1.592 -6.106 L 1.589 -6.131 L 1.587 -6.156 L 1.587 -6.170 L 1.587 -6.183 L 1.587 -6.197 L 1.587 -6.210 L 1.587 -6.224 L 1.587 -6.237 L 1.587 -6.251 L 1.587 -6.264 L 1.587 -6.277 L 1.587 -6.291 L 1.587 -6.304 L 1.587 -6.318 L 1.587 -6.331 L 1.587 -6.345 L 1.587 -6.358 L 1.587 -6.371 L 1.587 -6.385 L 1.587 -6.398 L 1.587 -6.412 L 1.587 -6.425 L 1.587 -6.439 L 1.587 -6.452 L 1.587 -6.466 L 1.587 -6.479 L 1.589 -6.532 L 1.594 -6.584 L 1.603 -6.637 L 1.614 -6.688 L 1.629 -6.739 L 1.647 -6.788 L 1.669 -6.837 L 1.693 -6.884 L 1.720 -6.929 L 1.750 -6.972 L 1.783 -7.014 L 1.818 -7.053 L 1.856 -7.090 L 1.896 -7.125 L 1.938 -7.157 L 1.982 -7.186 L 2.028 -7.212 L 2.075 -7.235 L 2.124 -7.255 L 2.174 -7.273 L 2.225 -7.286 L 2.277 -7.297 L 2.329 -7.304 L 2.382 -7.308 L 2.473 -7.319 L 2.562 -7.342 L 2.646 -7.379 L 2.724 -7.426 L 2.795 -7.485 L 2.856 -7.553 L 2.907 -7.630 L 2.947 -7.713 L 2.974 -7.800 L 2.988 -7.891 L 2.988 -7.983 L 2.976 -8.074 L 2.951 -8.162 L 2.913 -8.246 L 2.863 -8.323 L 2.803 -8.392 L 2.734 -8.452 L 2.656 -8.501 L 2.573 -8.539 L 2.484 -8.564 L 2.393 -8.576 L 2.302 -8.575 L 2.211 -8.561 L 2.123 -8.534 L 1.954 -8.471 L 1.782 -8.413 L 1.609 -8.360 L 1.434 -8.313 L 1.258 -8.271 L 1.080 -8.234 L 0.902 -8.204 L 0.723 -8.178 L 0.543 -8.159 L 0.362 -8.145 L 0.181 -8.136 L 0.000 -8.133 L -0.181 -8.136 L -0.362 -8.145 L -0.543 -8.159 L -0.723 -8.178 L -0.902 -8.204 L -1.080 -8.234 L -1.258 -8.271 L -1.434 -8.313 L -1.609 -8.360 L -1.782 -8.413 L -1.954 -8.471 L -2.123 -8.534 L -2.172 -8.551 L -2.222 -8.564 L -2.272 -8.572 L -2.324 -8.577 L -2.375 -8.577 L -2.426 -8.574 L -2.477 -8.566 L -2.527 -8.554 L -2.576 -8.538 L -2.623 -8.518 L -2.669 -8.494 L -2.713 -8.467 L -2.754 -8.436 L -2.793 -8.403 L -2.828 -8.366 L -2.861 -8.326 L -2.890 -8.284 L -2.916 -8.239 L -2.938 -8.193 L -2.957 -8.145 L -2.971 -8.095 L -2.981 -8.045 L -2.988 -7.994 L -2.990 -7.943 L -2.988 -7.902 L -2.985 -7.862 L -2.978 -7.822 L -2.969 -7.783 L -2.958 -7.744 L -2.944 -7.706 L -2.928 -7.669 L -2.909 -7.633 L -2.888 -7.598 L -2.865 -7.565 L -2.840 -7.533 L -2.813 -7.503 L -2.784 -7.475 L -2.754 -7.449 L -2.721 -7.424 L -2.688 -7.402 L -2.653 -7.382 L -2.616 -7.364 L -2.579 -7.349 L -2.541 -7.336 L -2.502 -7.325 L -2.462 -7.317 L -2.422 -7.311 L -2.382 -7.308 L -2.329 -7.304 L -2.277 -7.297 L -2.225 -7.286 L -2.174 -7.273 L -2.124 -7.255 L -2.075 -7.235 L -2.028 -7.212 L -1.982 -7.186 L -1.938 -7.157 L -1.896 -7.125 L -1.856 -7.090 L -1.818 -7.053 L -1.783 -7.014 L -1.750 -6.972 L -1.720 -6.929 L -1.693 -6.884 L -1.669 -6.837 L -1.647 -6.788 L -1.629 -6.739 L -1.614 -6.688 L -1.603 -6.637 L -1.594 -6.584 L -1.589 -6.532 L -1.587 -6.479 L -1.587 -6.466 L -1.587 -6.452 L -1.587 -6.439 L -1.587 -6.425 L -1.587 -6.412 L -1.587 -6.398 L -1.587 -6.385 L -1.587 -6.371 L -1.587 -6.358 L -1.587 -6.345 L -1.587 -6.331 L -1.587 -6.318 L -1.587 -6.304 L -1.587 -6.291 L -1.587 -6.277 L -1.587 -6.264 L -1.587 -6.251 L -1.587 -6.237 L -1.587 -6.224 L -1.587 -6.210 L -1.587 -6.197 L -1.587 -6.183 L -1.587 -6.170 L -1.587 -6.156 L -1.589 -6.131 L -1.592 -6.106 L -1.598 -6.081 L -1.606 -6.057 L -1.617 -6.033 L -1.629 -6.011 L -1.644 -5.990 L -1.660 -5.970 L -1.678 -5.952 L -1.698 -5.936 L -1.719 -5.922 L -1.742 -5.910 L -1.765 -5.900 L -1.790 -5.892 L -1.815 -5.886 L -1.840 -5.883 L -1.866 -5.882 L -1.891 -5.884 L -1.916 -5.888 L -1.941 -5.894 L -1.965 -5.902 L -1.988 -5.913 L -2.011 -5.926 L -2.031 -5.941 L -2.071 -5.969 L -2.113 -5.994 L -2.157 -6.014 L -2.203 -6.030 L -2.251 -6.042 L -2.299 -6.050 L -2.347 -6.053 L -2.396 -6.051 L -2.444 -6.045 L -2.492 -6.034 L -2.538 -6.019 L -2.583 -6.000 L -2.626 -5.977 L -2.666 -5.950 L -2.704 -5.919 L -2.739 -5.885 L -2.770 -5.847 L -2.798 -5.807 L -2.822 -5.765 L -2.842 -5.720 L -2.857 -5.674 L -2.869 -5.627 L -2.876 -5.578 L -2.878 -5.530 L -2.876 -5.487 L -2.871 -5.444 L -2.862 -5.402 L -2.850 -5.361 L -2.834 -5.321 L -2.816 -5.282 L -2.794 -5.245 L -2.769 -5.210 L -2.741 -5.177 L -2.711 -5.147 L -2.678 -5.119 L -2.644 -5.094 L -2.607 -5.071 L -2.568 -5.052 L -2.529 -5.036 L -2.487 -5.024 L -2.445 -5.015 L -2.403 -5.009 L -2.360 -5.007 L -2.317 -5.008 L -2.274 -5.013 L -2.232 -5.021 L -2.191 -5.033 L -2.151 -5.048 L -2.120 -5.060 L -2.088 -5.069 L -2.055 -5.075 L -2.022 -5.079 L -1.989 -5.080 L -1.956 -5.079 L -1.923 -5.075 L -1.891 -5.068 L -1.859 -5.058 L -1.828 -5.046 L -1.798 -5.032 L -1.770 -5.015 L -1.743 -4.996 L -1.717 -4.974 L -1.694 -4.951 L -1.672 -4.926 L -1.653 -4.899 L -1.635 -4.871 L -1.620 -4.842 L -1.608 -4.811 L -1.598 -4.779 L -1.590 -4.747 L -1.586 -4.714 L -1.583 -4.681 L -1.583 -4.677 L -1.583 -4.673 L -1.583 -4.668 L -1.583 -4.664 L -1.583 -4.660 L -1.583 -4.656 L -1.583 -4.651 L -1.583 -4.647 L -1.583 -4.643 L -1.584 -4.639 L -1.584 -4.634 L -1.584 -4.630 L -1.584 -4.626 L -1.584 -4.622 L -1.584 -4.617 L -1.585 -4.613 L -1.585 -4.609 L -1.585 -4.605 L -1.586 -4.600 L -1.586 -4.596 L -1.586 -4.592 L -1.587 -4.588 L -1.587 -4.583 L -1.587 -4.579 L -1.587 -4.484 L -1.587 -4.388 L -1.587 -4.292 L -1.587 -4.197 L -1.587 -4.101 L -1.587 -4.006 L -1.587 -3.910 L -1.587 -3.815 L -1.587 -3.719 L -1.587 -3.624 L -1.587 -3.528 L -1.587 -3.433 L -1.587 -3.337 L -1.587 -3.241 L -1.587 -3.146 L -1.587 -3.050 L -1.587 -2.955 L -1.587 -2.859 L -1.587 -2.764 L -1.587 -2.668 L -1.587 -2.573 L -1.587 -2.477 L -1.587 -2.382 L -1.587 -2.286 L -1.719 -2.279 L -1.851 -2.272 L -1.982 -2.265 L -2.114 -2.259 L -2.246 -2.252 L -2.377 -2.245 L -2.509 -2.238 L -2.641 -2.231 L -2.772 -2.224 L -2.904 -2.217 L -3.036 -2.211 L -3.167 -2.204 L -3.299 -2.197 L -3.431 -2.190 L -3.562 -2.183 L -3.694 -2.176 L -3.826 -2.169 L -3.957 -2.162 L -4.089 -2.156 L -4.221 -2.149 L -4.352 -2.142 L -4.484 -2.135 L -4.616 -2.128 L -4.747 -2.121 L -4.747 -2.168 L -4.747 -2.214 L -4.747 -2.261 L -4.747 -2.308 L -4.747 -2.354 L -4.747 -2.401 L -4.747 -2.447 L -4.747 -2.494 L -4.747 -2.540 L -4.747 -2.587 L -4.747 -2.633 L -4.747 -2.680 L -4.747 -2.726 L -4.747 -2.773 L -4.747 -2.820 L -4.747 -2.866 L -4.747 -2.913 L -4.747 -2.959 L -4.747 -3.006 L -4.747 -3.052 L -4.747 -3.099 L -4.747 -3.145 L -4.747 -3.192 L -4.747 -3.238 L -4.787 -3.190 L -4.828 -3.141 L -4.868 -3.093 L -4.908 -3.044 L -4.948 -2.995 L -4.989 -2.947 L -5.029 -2.898 L -5.069 -2.849 L -5.109 -2.801 L -5.149 -2.752 L -5.190 -2.703 L -5.230 -2.655 L -5.270 -2.606 L -5.310 -2.557 L -5.351 -2.509 L -5.391 -2.460 L -5.431 -2.412 L -5.471 -2.363 L -5.512 -2.314 L -5.552 -2.266 L -5.592 -2.217 L -5.632 -2.168 L -5.672 -2.120 L -5.713 -2.071 L -5.736 -2.070 L -5.759 -2.068 L -5.782 -2.067 L -5.806 -2.065 L -5.829 -2.064 L -5.852 -2.062 L -5.876 -2.061 L -5.899 -2.060 L -5.922 -2.058 L -5.945 -2.057 L -5.969 -2.055 L -5.992 -2.054 L -6.015 -2.052 L -6.038 -2.051 L -6.062 -2.050 L -6.085 -2.048 L -6.108 -2.047 L -6.132 -2.045 L -6.155 -2.044 L -6.178 -2.042 L -6.201 -2.041 L -6.225 -2.040 L -6.248 -2.038 L -6.271 -2.037 L -6.271 -2.087 L -6.271 -2.137 L -6.271 -2.187 L -6.271 -2.237 L -6.271 -2.287 L -6.271 -2.337 L -6.271 -2.387 L -6.271 -2.437 L -6.271 -2.487 L -6.271 -2.537 L -6.271 -2.588 L -6.271 -2.638 L -6.271 -2.688 L -6.271 -2.738 L -6.271 -2.788 L -6.271 -2.838 L -6.271 -2.888 L -6.271 -2.938 L -6.271 -2.988 L -6.271 -3.038 L -6.271 -3.088 L -6.271 -3.138 L -6.271 -3.188 L -6.271 -3.238 L -6.304 -3.199 L -6.337 -3.159 L -6.370 -3.119 L -6.402 -3.080 L -6.435 -3.040 L -6.468 -3.000 L -6.501 -2.961 L -6.534 -2.921 L -6.567 -2.881 L -6.599 -2.842 L -6.632 -2.802 L -6.665 -2.762 L -6.698 -2.723 L -6.731 -2.683 L -6.763 -2.643 L -6.796 -2.603 L -6.829 -2.564 L -6.862 -2.524 L -6.895 -2.484 L -6.928 -2.445 L -6.960 -2.405 L -6.993 -2.365 L -7.026 -2.326 L -7.059 -2.286 L -7.069 -2.274 L -7.079 -2.261 L -7.089 -2.249 L -7.099 -2.236 L -7.109 -2.224 L -7.119 -2.212 L -7.129 -2.199 L -7.139 -2.187 L -7.149 -2.174 L -7.159 -2.162 L -7.169 -2.150 L -7.179 -2.137 L -7.189 -2.125 L -7.199 -2.112 L -7.209 -2.100 L -7.219 -2.088 L -7.229 -2.075 L -7.239 -2.063 L -7.249 -2.050 L -7.259 -2.038 L -7.269 -2.026 L -7.279 -2.013 L -7.289 -2.001 L -7.299 -1.988 L -7.319 -1.987 L -7.340 -1.986 L -7.361 -1.985 L -7.381 -1.984 L -7.402 -1.983 L -7.423 -1.982 L -7.444 -1.981 L -7.464 -1.980 L -7.485 -1.979 L -7.506 -1.978 L -7.526 -1.976 L -7.547 -1.975 L -7.568 -1.974 L -7.588 -1.973 L -7.609 -1.972 L -7.630 -1.971 L -7.650 -1.970 L -7.671 -1.969 L -7.692 -1.968 L -7.712 -1.967 L -7.733 -1.966 L -7.754 -1.965 L -7.775 -1.964 L -7.795 -1.962 L -7.795 -2.016 L -7.795 -2.069 L -7.795 -2.122 L -7.795 -2.175 L -7.795 -2.228 L -7.795 -2.281 L -7.795 -2.335 L -7.795 -2.388 L -7.795 -2.441 L -7.795 -2.494 L -7.795 -2.547 L -7.795 -2.600 L -7.795 -2.654 L -7.795 -2.707 L -7.795 -2.760 L -7.795 -2.813 L -7.795 -2.866 L -7.795 -2.919 L -7.795 -2.973 L -7.795 -3.026 L -7.795 -3.079 L -7.795 -3.132 L -7.795 -3.185 L -7.795 -3.239 L -7.841 -3.183 L -7.887 -3.127 L -7.933 -3.072 L -7.979 -3.016 L -8.025 -2.961 L -8.071 -2.905 L -8.117 -2.850 L -8.163 -2.794 L -8.209 -2.738 L -8.255 -2.683 L -8.301 -2.627 L -8.347 -2.572 L -8.393 -2.516 L -8.438 -2.461 L -8.484 -2.405 L -8.530 -2.350 L -8.576 -2.294 L -8.622 -2.238 L -8.668 -2.183 L -8.714 -2.127 L -8.760 -2.072 L -8.806 -2.016 L -8.852 -1.961 L -8.898 -1.905 L -8.910 -1.905 L -8.923 -1.905 L -8.935 -1.905 L -8.947 -1.905 L -8.960 -1.905 L -8.972 -1.905 L -8.984 -1.905 L -8.997 -1.905 L -9.009 -1.905 L -9.022 -1.905 L -9.034 -1.905 L -9.046 -1.905 L -9.059 -1.905 L -9.071 -1.905 L -9.083 -1.905 L -9.096 -1.905 L -9.108 -1.905 L -9.121 -1.905 L -9.133 -1.905 L -9.145 -1.905 L -9.158 -1.905 L -9.170 -1.905 L -9.182 -1.905 L -9.195 -1.905 L -9.319 -1.901 L -9.443 -1.889 L -9.566 -1.868 L -9.688 -1.840 L -9.807 -1.804 L -9.924 -1.760 L -10.037 -1.709 L -10.147 -1.650 L -10.253 -1.584 L -10.354 -1.511 L -10.451 -1.432 L -10.542 -1.347 L -10.627 -1.256 L -10.706 -1.160 L -10.779 -1.058 L -10.845 -0.952 L -10.903 -0.843 L -10.955 -0.729 L -10.999 -0.612 L -11.035 -0.493 L -11.063 -0.372 L -11.084 -0.249 L -11.096 -0.125 L -11.100 0.000 L -11.096 0.125 L -11.084 0.249 L -11.063 0.372 L -11.035 0.493 L -10.999 0.612 L -10.955 0.729 L -10.903 0.843 L -10.845 0.953 L -10.779 1.058 L -10.706 1.160 L -10.627 1.256 L -10.542 1.347 L -10.451 1.432 L -10.354 1.511 L -10.253 1.584 L -10.147 1.650 L -10.037 1.709 L -9.924 1.760 L -9.807 1.804 L -9.688 1.840 L -9.566 1.868 L -9.443 1.889 L -9.319 1.901 L -9.195 1.905 L -9.182 1.905 L -9.170 1.905 L -9.158 1.905 L -9.145 1.905 L -9.133 1.905 L -9.121 1.905 L -9.108 1.905 L -9.096 1.905 L -9.083 1.905 L -9.071 1.905 L -9.059 1.905 L -9.046 1.905 L -9.034 1.905 L -9.022 1.905 L -9.009 1.905 L -8.997 1.905 L -8.984 1.905 L -8.972 1.905 L -8.960 1.905 L -8.947 1.905 L -8.935 1.905 L -8.923 1.905 L -8.910 1.905 L -8.898 1.905 L -8.852 1.961 L -8.806 2.016 L -8.760 2.072 L -8.714 2.127 L -8.668 2.183 L -8.622 2.238 L -8.576 2.294 L -8.530 2.350 L -8.484 2.405 L -8.438 2.461 L -8.393 2.516 L -8.347 2.572 L -8.301 2.627 L -8.255 2.683 L -8.209 2.738 L -8.163 2.794 L -8.117 2.850 L -8.071 2.905 L -8.025 2.961 L -7.979 3.016 L -7.933 3.072 L -7.887 3.127 L -7.841 3.183 L -7.795 3.239 L -7.795 3.185 L -7.795 3.132 L -7.795 3.079 L -7.795 3.026 L -7.795 2.973 L -7.795 2.919 L -7.795 2.866 L -7.795 2.813 L -7.795 2.760 L -7.795 2.707 L -7.795 2.654 L -7.795 2.600 L -7.795 2.547 L -7.795 2.494 L -7.795 2.441 L -7.795 2.388 L -7.795 2.335 L -7.795 2.281 L -7.795 2.228 L -7.795 2.175 L -7.795 2.122 L -7.795 2.069 L -7.795 2.016 L -7.795 1.962 L -7.775 1.964 L -7.754 1.965 L -7.733 1.966 L -7.712 1.967 L -7.692 1.968 L -7.671 1.969 L -7.650 1.970 L -7.630 1.971 L -7.609 1.972 L -7.588 1.973 L -7.568 1.974 L -7.547 1.975 L -7.526 1.976 L -7.506 1.978 L -7.485 1.979 L -7.464 1.980 L -7.444 1.981 L -7.423 1.982 L -7.402 1.983 L -7.381 1.984 L -7.361 1.985 L -7.340 1.986 L -7.319 1.987 L -7.299 1.988 L -7.289 2.001 L -7.279 2.013 L -7.269 2.026 L -7.259 2.038 L -7.249 2.050 L -7.239 2.063 L -7.229 2.075 L -7.219 2.088 L -7.209 2.100 L -7.199 2.112 L -7.189 2.125 L -7.179 2.137 L -7.169 2.150 L -7.159 2.162 L -7.149 2.174 L -7.139 2.187 L -7.129 2.199 L -7.119 2.212 L -7.109 2.224 L -7.099 2.236 L -7.089 2.249 L -7.079 2.261 L -7.069 2.274 L -7.059 2.286 L -7.026 2.326 L -6.993 2.365 L -6.960 2.405 L -6.928 2.445 L -6.895 2.484 L -6.862 2.524 L -6.829 2.564 L -6.796 2.603 L -6.763 2.643 L -6.731 2.683 L -6.698 2.723 L -6.665 2.762 L -6.632 2.802 L -6.599 2.842 L -6.567 2.881 L -6.534 2.921 L -6.501 2.961 L -6.468 3.000 L -6.435 3.040 L -6.402 3.080 L -6.370 3.119 L -6.337 3.159 L -6.304 3.199 L -6.271 3.238 L -6.271 3.188 L -6.271 3.138 L -6.271 3.088 L -6.271 3.038 L -6.271 2.988 L -6.271 2.938 L -6.271 2.888 L -6.271 2.838 L -6.271 2.788 L -6.271 2.738 L -6.271 2.688 L -6.271 2.638 L -6.271 2.588 L -6.271 2.537 L -6.271 2.487 L -6.271 2.437 L -6.271 2.387 L -6.271 2.337 L -6.271 2.287 L -6.271 2.237 L -6.271 2.187 L -6.271 2.137 L -6.271 2.087 L -6.271 2.037 L -6.248 2.038 L -6.225 2.040 L -6.201 2.041 L -6.178 2.042 L -6.155 2.044 L -6.132 2.045 L -6.108 2.047 L -6.085 2.048 L -6.062 2.050 L -6.038 2.051 L -6.015 2.052 L -5.992 2.054 L -5.969 2.055 L -5.945 2.057 L -5.922 2.058 L -5.899 2.060 L -5.876 2.061 L -5.852 2.062 L -5.829 2.064 L -5.806 2.065 L -5.782 2.067 L -5.759 2.068 L -5.736 2.070 L -5.713 2.071 L -5.672 2.120 L -5.632 2.168 L -5.592 2.217 L -5.552 2.266 L -5.512 2.314 L -5.471 2.363 L -5.431 2.412 L -5.391 2.460 L -5.351 2.509 L -5.310 2.557 L -5.270 2.606 L -5.230 2.655 L -5.190 2.703 L -5.149 2.752 L -5.109 2.801 L -5.069 2.849 L -5.029 2.898 L -4.989 2.947 L -4.948 2.995 L -4.908 3.044 L -4.868 3.093 L -4.828 3.141 L -4.787 3.190 L -4.747 3.238 L -4.747 3.192 L -4.747 3.145 L -4.747 3.099 L -4.747 3.052 L -4.747 3.006 L -4.747 2.959 L -4.747 2.913 L -4.747 2.866 L -4.747 2.820 L -4.747 2.773 L -4.747 2.726 L -4.747 2.680 L -4.747 2.633 L -4.747 2.587 L -4.747 2.540 L -4.747 2.494 L -4.747 2.447 L -4.747 2.401 L -4.747 2.354 L -4.747 2.308 L -4.747 2.261 L -4.747 2.214 L -4.747 2.168 L -4.747 2.121 L -4.616 2.128 L -4.484 2.135 L -4.352 2.142 L -4.221 2.149 L -4.089 2.156 L -3.957 2.162 L -3.826 2.169 L -3.694 2.176 L -3.562 2.183 L -3.431 2.190 L -3.299 2.197 L -3.167 2.204 L -3.036 2.211 L -2.904 2.217 L -2.772 2.224 L -2.641 2.231 L -2.509 2.238 L -2.377 2.245 L -2.246 2.252 L -2.114 2.259 L -1.982 2.265 L -1.851 2.272 L -1.719 2.279 L -1.587 2.286 L -1.587 2.382 L -1.587 2.477 L -1.587 2.573 L -1.587 2.668 L -1.587 2.764 L -1.587 2.859 L -1.587 2.955 L -1.587 3.050 L -1.587 3.146 L -1.587 3.241 L -1.587 3.337 L -1.587 3.433 L -1.587 3.528 L -1.587 3.624 L -1.587 3.719 L -1.587 3.815 L -1.587 3.910 L -1.587 4.006 L -1.587 4.101 L -1.587 4.197 L -1.587 4.292 L -1.587 4.388 L -1.587 4.484 L -1.587 4.579 L -1.587 4.583 L -1.587 4.588 L -1.586 4.592 L -1.586 4.596 L -1.586 4.600 L -1.585 4.605 L -1.585 4.609 L -1.585 4.613 L -1.584 4.617 L -1.584 4.622 L -1.584 4.626 L -1.584 4.630 L -1.584 4.634 L -1.584 4.639 L -1.583 4.643 L -1.583 4.647 L -1.583 4.651 L -1.583 4.656 L -1.583 4.660 L -1.583 4.664 L -1.583 4.668 L -1.583 4.673 L -1.583 4.677 L -1.583 4.681 L -1.586 4.714 L -1.590 4.747 L -1.598 4.779 L -1.608 4.811 L -1.620 4.842 L -1.635 4.871 L -1.653 4.899 L -1.672 4.926 L -1.694 4.951 L -1.717 4.974 L -1.743 4.996 L -1.770 5.015 L -1.798 5.032 L -1.828 5.046 L -1.859 5.058 L -1.891 5.068 L -1.923 5.075 L -1.956 5.079 L -1.989 5.080 L -2.022 5.079 L -2.055 5.075 L -2.088 5.069 L -2.120 5.060 L -2.151 5.048 L -2.191 5.033 L -2.232 5.021 L -2.274 5.013 L -2.317 5.008 L -2.360 5.007 L -2.403 5.009 L -2.445 5.015 L -2.487 5.024 L -2.529 5.036 L -2.568 5.052 L -2.607 5.071 L -2.644 5.094 L -2.678 5.119 L -2.711 5.147 L -2.741 5.177 L -2.769 5.210 L -2.794 5.245 L -2.816 5.282 L -2.834 5.321 L -2.850 5.361 L -2.862 5.402 L -2.871 5.444 L -2.876 5.487 L -2.878 5.530 L -2.876 5.578 L -2.869 5.627 L -2.857 5.674 L -2.842 5.720 L -2.822 5.765 L -2.798 5.807 L -2.770 5.847 L -2.739 5.885 L -2.704 5.919 L -2.666 5.950 L -2.626 5.977 L -2.583 6.000 L -2.538 6.019 L -2.492 6.034 L -2.444 6.045 L -2.396 6.051 L -2.347 6.053 L -2.299 6.050 L -2.251 6.042 L -2.203 6.030 L -2.157 6.014 L -2.113 5.994 L -2.071 5.969 L -2.031 5.941 L -2.011 5.926 L -1.988 5.913 L -1.965 5.902 L -1.941 5.894 L -1.916 5.888 L -1.891 5.884 L -1.866 5.882 L -1.840 5.883 L -1.815 5.886 L -1.790 5.892 L -1.765 5.900 L -1.742 5.910 L -1.719 5.922 L -1.698 5.936 L -1.678 5.952 L -1.660 5.970 L -1.644 5.990 L -1.629 6.011 L -1.617 6.033 L -1.606 6.057 L -1.598 6.081 L -1.592 6.106 L -1.589 6.131 L -1.587 6.156 L -1.587 6.170 L -1.587 6.183 L -1.587 6.197 L -1.587 6.210 L -1.587 6.224 L -1.587 6.237 L -1.587 6.251 L -1.587 6.264 L -1.587 6.277 L -1.587 6.291 L -1.587 6.304 L -1.587 6.318 L -1.587 6.331 L -1.587 6.345 L -1.587 6.358 L -1.587 6.371 L -1.587 6.385 L -1.587 6.398 L -1.587 6.412 L -1.587 6.425 L -1.587 6.439 L -1.587 6.452 L -1.587 6.466 L -1.587 6.479 L -1.589 6.532 L -1.594 6.584 L -1.603 6.637 L -1.614 6.688 L -1.629 6.739 L -1.647 6.788 L -1.669 6.837 L -1.693 6.884 L -1.720 6.929 L -1.750 6.972 L -1.783 7.014 L -1.818 7.053 L -1.856 7.090 L -1.896 7.125 L -1.938 7.157 L -1.982 7.186 L -2.028 7.212 L -2.075 7.235 L -2.124 7.255 L -2.174 7.273 L -2.225 7.286 L -2.277 7.297 L -2.329 7.304 L -2.382 7.308 L -2.422 7.311 L -2.462 7.317 L -2.502 7.325 L -2.541 7.336 L -2.579 7.349 L -2.616 7.364 L -2.653 7.382 L -2.688 7.402 L -2.721 7.424 L -2.754 7.449 L -2.784 7.475 L -2.813 7.503 L -2.840 7.533 L -2.865 7.565 L -2.888 7.598 L -2.909 7.633 L -2.928 7.669 L -2.944 7.706 L -2.958 7.744 L -2.969 7.783 L -2.978 7.822 L -2.985 7.862 L -2.988 7.902 L -2.990 7.943 L -2.988 7.994 L -2.981 8.045 L -2.971 8.095 L -2.957 8.145 L -2.938 8.193 L -2.916 8.239 L -2.890 8.284 L -2.861 8.326 L -2.828 8.366 L -2.793 8.403 L -2.754 8.436 L -2.713 8.467 L -2.669 8.494 L -2.623 8.518 L -2.576 8.538 L -2.527 8.554 L -2.477 8.566 L -2.426 8.574 L -2.375 8.577 L -2.324 8.577 L -2.272 8.572 L -2.222 8.564 L -2.172 8.551 L -2.123 8.534 L -1.954 8.471 L -1.782 8.413 L -1.609 8.360 L -1.434 8.313 L -1.258 8.271 L -1.080 8.234 L -0.902 8.204 L -0.723 8.178 L -0.543 8.159 L -0.362 8.145 L -0.181 8.136 L 0.000 8.133 L 0.181 8.136 L 0.362 8.145 L 0.543 8.159 L 0.723 8.178 L 0.902 8.204 L 1.080 8.234 L 1.258 8.271 L 1.434 8.313 L 1.609 8.360 L 1.782 8.413 L 1.954 8.471 L 2.123 8.534 L 2.211 8.561 L 2.302 8.575 L 2.393 8.576 L 2.484 8.564 L 2.573 8.539 L 2.656 8.501 L 2.734 8.452 L 2.803 8.392 L 2.863 8.323 L 2.913 8.246 L 2.951 8.162 L 2.976 8.074 L 2.988 7.983 L 2.988 7.891 L 2.974 7.800 L 2.947 7.713 L 2.907 7.630 L 2.856 7.553 L 2.795 7.485 L 2.724 7.426 L 2.646 7.379 L 2.562 7.342 L 2.473 7.319 L 2.382 7.308 L 2.329 7.304 L 2.277 7.297 L 2.225 7.286 L 2.174 7.273 L 2.124 7.255 L 2.075 7.235 L 2.028 7.212 L 1.982 7.186 L 1.938 7.157 L 1.896 7.125 L 1.856 7.090 L 1.818 7.053 L 1.783 7.014 L 1.750 6.972 L 1.720 6.929 L 1.693 6.884 L 1.669 6.837 L 1.647 6.788 L 1.629 6.739 L 1.614 6.688 L 1.603 6.637 L 1.594 6.584 L 1.589 6.532 L 1.587 6.479 L 1.587 6.466 L 1.587 6.452 L 1.587 6.439 L 1.587 6.425 L 1.587 6.412 L 1.587 6.398 L 1.587 6.385 L 1.587 6.371 L 1.587 6.358 L 1.587 6.345 L 1.587 6.331 L 1.587 6.318 L 1.587 6.304 L 1.587 6.291 L 1.587 6.277 L 1.587 6.264 L 1.587 6.251 L 1.587 6.237 L 1.587 6.224 L 1.587 6.210 L 1.587 6.197 L 1.587 6.183 L 1.587 6.170 L 1.587 6.156 L 1.589 6.131 L 1.592 6.106 L 1.598 6.081 L 1.606 6.057 L 1.617 6.033 L 1.629 6.011 L 1.644 5.990 L 1.660 5.970 L 1.678 5.952 L 1.698 5.936 L 1.719 5.922 L 1.742 5.910 L 1.765 5.900 L 1.790 5.892 L 1.815 5.886 L 1.840 5.883 L 1.866 5.882 L 1.891 5.884 L 1.916 5.888 L 1.941 5.894 L 1.965 5.902 L 1.988 5.913 L 2.011 5.926 L 2.031 5.941 L 2.108 5.991 L 2.192 6.027 L 2.282 6.048 L 2.373 6.052 L 2.464 6.041 L 2.551 6.014 L 2.633 5.973 L 2.706 5.917 L 2.768 5.850 L 2.818 5.773 L 2.853 5.688 L 2.873 5.599 L 2.877 5.508 L 2.865 5.417 L 2.838 5.329 L 2.796 5.248 L 2.740 5.175 L 2.672 5.114 L 2.595 5.065 L 2.510 5.030 L 2.420 5.011 L 2.329 5.007 L 2.238 5.020 L 2.151 5.048 L 2.120 5.060 L 2.088 5.069 L 2.055 5.075 L 2.022 5.079 L 1.989 5.080 L 1.956 5.079 L 1.923 5.075 L 1.891 5.068 L 1.859 5.058 L 1.828 5.046 L 1.798 5.032 L 1.770 5.015 L 1.743 4.996 L 1.717 4.974 L 1.694 4.951 L 1.672 4.926 L 1.653 4.899 L 1.635 4.871 L 1.620 4.842 L 1.608 4.811 L 1.598 4.779 L 1.590 4.747 L 1.586 4.714 L 1.583 4.681 L 1.583 4.680 L 1.583 4.680 L 1.583 4.679 L 1.583 4.678 L 1.583 4.677 L 1.583 4.677 L 1.583 4.676 L 1.583 4.675 L 1.583 4.674 L 1.583 4.673 L 1.583 4.673 L 1.583 4.672 L 1.583 4.671 L 1.583 4.670 L 1.583 4.670 L 1.583 4.669 L 1.583 4.668 L 1.583 4.667 L 1.583 4.667 L 1.583 4.666 L 1.583 4.665 L 1.583 4.664 L 1.583 4.664 L 1.583 4.663 Z" fill="url(#adxTpe)" stroke="#0A2A4E" stroke-width="0.18" stroke-linejoin="round"/>

  <!-- Water flowing across surface (low arc, well below labels) -->
  <g fill="none" stroke="#3D8BD6" stroke-width="0.55" stroke-linecap="round" opacity="0.85">
    <path d="M 0 -12.83 Q -20 -13.63, -50 -12.43"/>
    <path d="M 0 -12.83 Q  20 -13.63,  50 -12.43"/>
    <path d="M -50 -12.43 l -1.2 -0.4 m 1.2 0.4 l -0.9 1.0"/>
    <path d="M  50 -12.43 l  1.2 -0.4 m -1.2 0.4 l  0.9 1.0"/>
  </g>

  <!-- Labels -->
  <g font-family="Archivo, system-ui, sans-serif" font-weight="800" letter-spacing="0.08em">
    <text x="0" y="-20.51" text-anchor="middle" font-size="3.2" fill="#D6263A">DEXERDRY TPE SEAL</text>
    <text x="0" y="17.49" text-anchor="middle" font-size="2.4" fill="#0A2A4E">CELLULAR PVC + ASA CAP DECK BOARDS</text>
    <text x="0" y="21.29" text-anchor="middle" font-size="2.0" fill="#0A2A4E" opacity="0.65">WATER STOPPED AT THE SURFACE</text>
  </g>
</svg>
