<svg xmlns="http://www.w3.org/2000/svg" viewBox="-12.100 -9.577 24.200 19.155" role="img" aria-label="Dexerdry seal cross-section profile" preserveAspectRatio="xMidYMid meet">
  <defs>
    <linearGradient id="dxTpe" x1="0" y1="0" x2="0" y2="1">
      <stop offset="0%" stop-color="#3e434b"/>
      <stop offset="100%" stop-color="#1d2228"/>
    </linearGradient>
  </defs>
  <path d="M 1.583 4.663 L 1.583 4.659 L 1.583 4.656 L 1.583 4.652 L 1.583 4.649 L 1.583 4.645 L 1.584 4.642 L 1.584 4.638 L 1.584 4.635 L 1.584 4.631 L 1.584 4.628 L 1.584 4.624 L 1.584 4.621 L 1.584 4.617 L 1.585 4.614 L 1.585 4.610 L 1.585 4.607 L 1.585 4.603 L 1.586 4.600 L 1.586 4.596 L 1.586 4.593 L 1.587 4.590 L 1.587 4.586 L 1.587 4.583 L 1.587 4.579 L 1.587 4.484 L 1.587 4.388 L 1.587 4.292 L 1.587 4.197 L 1.587 4.101 L 1.587 4.006 L 1.587 3.910 L 1.587 3.815 L 1.587 3.719 L 1.587 3.624 L 1.587 3.528 L 1.587 3.433 L 1.587 3.337 L 1.587 3.241 L 1.587 3.146 L 1.587 3.050 L 1.587 2.955 L 1.587 2.859 L 1.587 2.764 L 1.587 2.668 L 1.587 2.573 L 1.587 2.477 L 1.587 2.382 L 1.587 2.286 L 1.719 2.279 L 1.851 2.272 L 1.982 2.265 L 2.114 2.259 L 2.246 2.252 L 2.377 2.245 L 2.509 2.238 L 2.641 2.231 L 2.772 2.224 L 2.904 2.217 L 3.036 2.211 L 3.167 2.204 L 3.299 2.197 L 3.431 2.190 L 3.562 2.183 L 3.694 2.176 L 3.826 2.169 L 3.957 2.162 L 4.089 2.156 L 4.221 2.149 L 4.352 2.142 L 4.484 2.135 L 4.616 2.128 L 4.747 2.121 L 4.747 2.168 L 4.747 2.214 L 4.747 2.261 L 4.747 2.308 L 4.747 2.354 L 4.747 2.401 L 4.747 2.447 L 4.747 2.494 L 4.747 2.540 L 4.747 2.587 L 4.747 2.633 L 4.747 2.680 L 4.747 2.726 L 4.747 2.773 L 4.747 2.820 L 4.747 2.866 L 4.747 2.913 L 4.747 2.959 L 4.747 3.006 L 4.747 3.052 L 4.747 3.099 L 4.747 3.145 L 4.747 3.192 L 4.747 3.239 L 4.787 3.190 L 4.828 3.141 L 4.868 3.093 L 4.908 3.044 L 4.948 2.995 L 4.989 2.947 L 5.029 2.898 L 5.069 2.849 L 5.109 2.801 L 5.149 2.752 L 5.190 2.703 L 5.230 2.655 L 5.270 2.606 L 5.310 2.557 L 5.351 2.509 L 5.391 2.460 L 5.431 2.412 L 5.471 2.363 L 5.512 2.314 L 5.552 2.266 L 5.592 2.217 L 5.632 2.168 L 5.672 2.120 L 5.713 2.071 L 5.736 2.070 L 5.759 2.068 L 5.782 2.067 L 5.806 2.065 L 5.829 2.064 L 5.852 2.062 L 5.876 2.061 L 5.899 2.060 L 5.922 2.058 L 5.945 2.057 L 5.969 2.055 L 5.992 2.054 L 6.015 2.052 L 6.038 2.051 L 6.062 2.050 L 6.085 2.048 L 6.108 2.047 L 6.132 2.045 L 6.155 2.044 L 6.178 2.042 L 6.201 2.041 L 6.225 2.040 L 6.248 2.038 L 6.271 2.037 L 6.271 2.087 L 6.271 2.137 L 6.271 2.187 L 6.271 2.237 L 6.271 2.287 L 6.271 2.337 L 6.271 2.387 L 6.271 2.437 L 6.271 2.487 L 6.271 2.537 L 6.271 2.588 L 6.271 2.638 L 6.271 2.688 L 6.271 2.738 L 6.271 2.788 L 6.271 2.838 L 6.271 2.888 L 6.271 2.938 L 6.271 2.988 L 6.271 3.038 L 6.271 3.088 L 6.271 3.138 L 6.271 3.188 L 6.271 3.238 L 6.304 3.199 L 6.337 3.159 L 6.370 3.119 L 6.402 3.080 L 6.435 3.040 L 6.468 3.000 L 6.501 2.961 L 6.534 2.921 L 6.567 2.881 L 6.599 2.842 L 6.632 2.802 L 6.665 2.762 L 6.698 2.723 L 6.731 2.683 L 6.763 2.643 L 6.796 2.603 L 6.829 2.564 L 6.862 2.524 L 6.895 2.484 L 6.928 2.445 L 6.960 2.405 L 6.993 2.365 L 7.026 2.326 L 7.059 2.286 L 7.069 2.274 L 7.079 2.261 L 7.089 2.249 L 7.099 2.236 L 7.109 2.224 L 7.119 2.212 L 7.129 2.199 L 7.139 2.187 L 7.149 2.174 L 7.159 2.162 L 7.169 2.150 L 7.179 2.137 L 7.189 2.125 L 7.199 2.112 L 7.209 2.100 L 7.219 2.088 L 7.229 2.075 L 7.239 2.063 L 7.249 2.050 L 7.259 2.038 L 7.269 2.026 L 7.279 2.013 L 7.289 2.001 L 7.299 1.988 L 7.319 1.987 L 7.340 1.986 L 7.361 1.985 L 7.381 1.984 L 7.402 1.983 L 7.423 1.982 L 7.444 1.981 L 7.464 1.980 L 7.485 1.979 L 7.506 1.978 L 7.526 1.976 L 7.547 1.975 L 7.568 1.974 L 7.588 1.973 L 7.609 1.972 L 7.630 1.971 L 7.650 1.970 L 7.671 1.969 L 7.692 1.968 L 7.712 1.967 L 7.733 1.966 L 7.754 1.965 L 7.775 1.964 L 7.795 1.962 L 7.795 2.016 L 7.795 2.069 L 7.795 2.122 L 7.795 2.175 L 7.795 2.228 L 7.795 2.281 L 7.795 2.335 L 7.795 2.388 L 7.795 2.441 L 7.795 2.494 L 7.795 2.547 L 7.795 2.600 L 7.795 2.654 L 7.795 2.707 L 7.795 2.760 L 7.795 2.813 L 7.795 2.866 L 7.795 2.919 L 7.795 2.973 L 7.795 3.026 L 7.795 3.079 L 7.795 3.132 L 7.795 3.185 L 7.795 3.239 L 7.841 3.183 L 7.887 3.127 L 7.933 3.072 L 7.979 3.016 L 8.025 2.961 L 8.071 2.905 L 8.117 2.850 L 8.163 2.794 L 8.209 2.738 L 8.255 2.683 L 8.301 2.627 L 8.347 2.572 L 8.393 2.516 L 8.438 2.461 L 8.484 2.405 L 8.530 2.350 L 8.576 2.294 L 8.622 2.238 L 8.668 2.183 L 8.714 2.127 L 8.760 2.072 L 8.806 2.016 L 8.852 1.961 L 8.898 1.905 L 8.910 1.905 L 8.923 1.905 L 8.935 1.905 L 8.947 1.905 L 8.960 1.905 L 8.972 1.905 L 8.984 1.905 L 8.997 1.905 L 9.009 1.905 L 9.022 1.905 L 9.034 1.905 L 9.046 1.905 L 9.059 1.905 L 9.071 1.905 L 9.083 1.905 L 9.096 1.905 L 9.108 1.905 L 9.121 1.905 L 9.133 1.905 L 9.145 1.905 L 9.158 1.905 L 9.170 1.905 L 9.182 1.905 L 9.195 1.905 L 9.443 1.889 L 9.688 1.840 L 9.924 1.760 L 10.147 1.650 L 10.354 1.511 L 10.542 1.347 L 10.706 1.160 L 10.845 0.953 L 10.955 0.729 L 11.035 0.493 L 11.084 0.249 L 11.100 0.000 L 11.084 -0.249 L 11.035 -0.493 L 10.955 -0.729 L 10.845 -0.952 L 10.706 -1.160 L 10.542 -1.347 L 10.354 -1.511 L 10.147 -1.650 L 9.924 -1.760 L 9.688 -1.840 L 9.443 -1.889 L 9.195 -1.905 L 9.182 -1.905 L 9.170 -1.905 L 9.158 -1.905 L 9.145 -1.905 L 9.133 -1.905 L 9.121 -1.905 L 9.108 -1.905 L 9.096 -1.905 L 9.083 -1.905 L 9.071 -1.905 L 9.059 -1.905 L 9.046 -1.905 L 9.034 -1.905 L 9.022 -1.905 L 9.009 -1.905 L 8.997 -1.905 L 8.984 -1.905 L 8.972 -1.905 L 8.960 -1.905 L 8.947 -1.905 L 8.935 -1.905 L 8.923 -1.905 L 8.910 -1.905 L 8.898 -1.905 L 8.852 -1.961 L 8.806 -2.016 L 8.760 -2.072 L 8.714 -2.127 L 8.668 -2.183 L 8.622 -2.238 L 8.576 -2.294 L 8.530 -2.350 L 8.484 -2.405 L 8.438 -2.461 L 8.393 -2.516 L 8.347 -2.572 L 8.301 -2.627 L 8.255 -2.683 L 8.209 -2.738 L 8.163 -2.794 L 8.117 -2.850 L 8.071 -2.905 L 8.025 -2.961 L 7.979 -3.016 L 7.933 -3.072 L 7.887 -3.127 L 7.841 -3.183 L 7.795 -3.239 L 7.795 -3.185 L 7.795 -3.132 L 7.795 -3.079 L 7.795 -3.026 L 7.795 -2.973 L 7.795 -2.919 L 7.795 -2.866 L 7.795 -2.813 L 7.795 -2.760 L 7.795 -2.707 L 7.795 -2.654 L 7.795 -2.600 L 7.795 -2.547 L 7.795 -2.494 L 7.795 -2.441 L 7.795 -2.388 L 7.795 -2.335 L 7.795 -2.281 L 7.795 -2.228 L 7.795 -2.175 L 7.795 -2.122 L 7.795 -2.069 L 7.795 -2.016 L 7.795 -1.962 L 7.775 -1.964 L 7.754 -1.965 L 7.733 -1.966 L 7.712 -1.967 L 7.692 -1.968 L 7.671 -1.969 L 7.650 -1.970 L 7.630 -1.971 L 7.609 -1.972 L 7.588 -1.973 L 7.568 -1.974 L 7.547 -1.975 L 7.526 -1.976 L 7.506 -1.978 L 7.485 -1.979 L 7.464 -1.980 L 7.444 -1.981 L 7.423 -1.982 L 7.402 -1.983 L 7.381 -1.984 L 7.361 -1.985 L 7.340 -1.986 L 7.319 -1.987 L 7.299 -1.988 L 7.289 -2.001 L 7.279 -2.013 L 7.269 -2.026 L 7.259 -2.038 L 7.249 -2.050 L 7.239 -2.063 L 7.229 -2.075 L 7.219 -2.088 L 7.209 -2.100 L 7.199 -2.112 L 7.189 -2.125 L 7.179 -2.137 L 7.169 -2.150 L 7.159 -2.162 L 7.149 -2.174 L 7.139 -2.187 L 7.129 -2.199 L 7.119 -2.212 L 7.109 -2.224 L 7.099 -2.236 L 7.089 -2.249 L 7.079 -2.261 L 7.069 -2.274 L 7.059 -2.286 L 7.026 -2.326 L 6.993 -2.365 L 6.960 -2.405 L 6.928 -2.445 L 6.895 -2.484 L 6.862 -2.524 L 6.829 -2.564 L 6.796 -2.603 L 6.763 -2.643 L 6.731 -2.683 L 6.698 -2.723 L 6.665 -2.762 L 6.632 -2.802 L 6.599 -2.842 L 6.567 -2.881 L 6.534 -2.921 L 6.501 -2.961 L 6.468 -3.000 L 6.435 -3.040 L 6.402 -3.080 L 6.370 -3.119 L 6.337 -3.159 L 6.304 -3.199 L 6.271 -3.238 L 6.271 -3.188 L 6.271 -3.138 L 6.271 -3.088 L 6.271 -3.038 L 6.271 -2.988 L 6.271 -2.938 L 6.271 -2.888 L 6.271 -2.838 L 6.271 -2.788 L 6.271 -2.738 L 6.271 -2.688 L 6.271 -2.638 L 6.271 -2.588 L 6.271 -2.537 L 6.271 -2.487 L 6.271 -2.437 L 6.271 -2.387 L 6.271 -2.337 L 6.271 -2.287 L 6.271 -2.237 L 6.271 -2.187 L 6.271 -2.137 L 6.271 -2.087 L 6.271 -2.037 L 6.248 -2.038 L 6.225 -2.040 L 6.201 -2.041 L 6.178 -2.042 L 6.155 -2.044 L 6.132 -2.045 L 6.108 -2.047 L 6.085 -2.048 L 6.062 -2.050 L 6.038 -2.051 L 6.015 -2.052 L 5.992 -2.054 L 5.969 -2.055 L 5.945 -2.057 L 5.922 -2.058 L 5.899 -2.060 L 5.876 -2.061 L 5.852 -2.062 L 5.829 -2.064 L 5.806 -2.065 L 5.782 -2.067 L 5.759 -2.068 L 5.736 -2.070 L 5.713 -2.071 L 5.672 -2.120 L 5.632 -2.168 L 5.592 -2.217 L 5.552 -2.266 L 5.512 -2.314 L 5.471 -2.363 L 5.431 -2.412 L 5.391 -2.460 L 5.351 -2.509 L 5.310 -2.557 L 5.270 -2.606 L 5.230 -2.655 L 5.190 -2.703 L 5.149 -2.752 L 5.109 -2.801 L 5.069 -2.849 L 5.029 -2.898 L 4.989 -2.947 L 4.948 -2.995 L 4.908 -3.044 L 4.868 -3.093 L 4.828 -3.141 L 4.787 -3.190 L 4.747 -3.238 L 4.747 -3.192 L 4.747 -3.145 L 4.747 -3.099 L 4.747 -3.052 L 4.747 -3.006 L 4.747 -2.959 L 4.747 -2.913 L 4.747 -2.866 L 4.747 -2.820 L 4.747 -2.773 L 4.747 -2.726 L 4.747 -2.680 L 4.747 -2.633 L 4.747 -2.587 L 4.747 -2.540 L 4.747 -2.494 L 4.747 -2.447 L 4.747 -2.401 L 4.747 -2.354 L 4.747 -2.308 L 4.747 -2.261 L 4.747 -2.214 L 4.747 -2.168 L 4.747 -2.121 L 4.616 -2.128 L 4.484 -2.135 L 4.352 -2.142 L 4.221 -2.149 L 4.089 -2.156 L 3.957 -2.162 L 3.826 -2.169 L 3.694 -2.176 L 3.562 -2.183 L 3.431 -2.190 L 3.299 -2.197 L 3.167 -2.204 L 3.036 -2.211 L 2.904 -2.217 L 2.772 -2.224 L 2.641 -2.231 L 2.509 -2.238 L 2.377 -2.245 L 2.246 -2.252 L 2.114 -2.259 L 1.982 -2.265 L 1.851 -2.272 L 1.719 -2.279 L 1.587 -2.286 L 1.587 -2.382 L 1.587 -2.477 L 1.587 -2.573 L 1.587 -2.668 L 1.587 -2.764 L 1.587 -2.859 L 1.587 -2.955 L 1.587 -3.050 L 1.587 -3.146 L 1.587 -3.241 L 1.587 -3.337 L 1.587 -3.433 L 1.587 -3.528 L 1.587 -3.624 L 1.587 -3.719 L 1.587 -3.815 L 1.587 -3.910 L 1.587 -4.006 L 1.587 -4.101 L 1.587 -4.197 L 1.587 -4.292 L 1.587 -4.388 L 1.587 -4.484 L 1.587 -4.579 L 1.587 -4.583 L 1.587 -4.586 L 1.587 -4.590 L 1.586 -4.593 L 1.586 -4.596 L 1.586 -4.600 L 1.585 -4.603 L 1.585 -4.607 L 1.585 -4.610 L 1.585 -4.614 L 1.584 -4.617 L 1.584 -4.621 L 1.584 -4.624 L 1.584 -4.628 L 1.584 -4.631 L 1.584 -4.635 L 1.584 -4.638 L 1.584 -4.642 L 1.583 -4.645 L 1.583 -4.649 L 1.583 -4.652 L 1.583 -4.656 L 1.583 -4.659 L 1.583 -4.663 L 1.583 -4.664 L 1.583 -4.664 L 1.583 -4.665 L 1.583 -4.666 L 1.583 -4.667 L 1.583 -4.667 L 1.583 -4.668 L 1.583 -4.669 L 1.583 -4.670 L 1.583 -4.670 L 1.583 -4.671 L 1.583 -4.672 L 1.583 -4.673 L 1.583 -4.673 L 1.583 -4.674 L 1.583 -4.675 L 1.583 -4.676 L 1.583 -4.677 L 1.583 -4.677 L 1.583 -4.678 L 1.583 -4.679 L 1.583 -4.680 L 1.583 -4.680 L 1.583 -4.681 L 1.586 -4.714 L 1.590 -4.747 L 1.598 -4.779 L 1.608 -4.811 L 1.620 -4.842 L 1.635 -4.871 L 1.653 -4.899 L 1.672 -4.926 L 1.694 -4.951 L 1.717 -4.974 L 1.743 -4.996 L 1.770 -5.015 L 1.798 -5.032 L 1.828 -5.046 L 1.859 -5.058 L 1.891 -5.068 L 1.923 -5.075 L 1.956 -5.079 L 1.989 -5.080 L 2.022 -5.079 L 2.055 -5.075 L 2.088 -5.069 L 2.120 -5.060 L 2.151 -5.048 L 2.238 -5.020 L 2.329 -5.007 L 2.420 -5.011 L 2.510 -5.030 L 2.595 -5.065 L 2.672 -5.114 L 2.740 -5.175 L 2.796 -5.248 L 2.838 -5.329 L 2.865 -5.417 L 2.877 -5.508 L 2.873 -5.599 L 2.853 -5.688 L 2.818 -5.773 L 2.768 -5.850 L 2.706 -5.917 L 2.633 -5.973 L 2.551 -6.014 L 2.464 -6.041 L 2.373 -6.052 L 2.282 -6.048 L 2.192 -6.027 L 2.108 -5.991 L 2.031 -5.941 L 2.011 -5.926 L 1.988 -5.913 L 1.965 -5.902 L 1.941 -5.894 L 1.916 -5.888 L 1.891 -5.884 L 1.866 -5.882 L 1.840 -5.883 L 1.815 -5.886 L 1.790 -5.892 L 1.765 -5.900 L 1.742 -5.910 L 1.719 -5.922 L 1.698 -5.936 L 1.678 -5.952 L 1.660 -5.970 L 1.644 -5.990 L 1.629 -6.011 L 1.617 -6.033 L 1.606 -6.057 L 1.598 -6.081 L 1.592 -6.106 L 1.589 -6.131 L 1.587 -6.156 L 1.587 -6.170 L 1.587 -6.183 L 1.587 -6.197 L 1.587 -6.210 L 1.587 -6.224 L 1.587 -6.237 L 1.587 -6.251 L 1.587 -6.264 L 1.587 -6.277 L 1.587 -6.291 L 1.587 -6.304 L 1.587 -6.318 L 1.587 -6.331 L 1.587 -6.345 L 1.587 -6.358 L 1.587 -6.371 L 1.587 -6.385 L 1.587 -6.398 L 1.587 -6.412 L 1.587 -6.425 L 1.587 -6.439 L 1.587 -6.452 L 1.587 -6.466 L 1.587 -6.479 L 1.589 -6.532 L 1.594 -6.584 L 1.603 -6.637 L 1.614 -6.688 L 1.629 -6.739 L 1.647 -6.788 L 1.669 -6.837 L 1.693 -6.884 L 1.720 -6.929 L 1.750 -6.972 L 1.783 -7.014 L 1.818 -7.053 L 1.856 -7.090 L 1.896 -7.125 L 1.938 -7.157 L 1.982 -7.186 L 2.028 -7.212 L 2.075 -7.235 L 2.124 -7.255 L 2.174 -7.273 L 2.225 -7.286 L 2.277 -7.297 L 2.329 -7.304 L 2.382 -7.308 L 2.473 -7.319 L 2.562 -7.342 L 2.646 -7.379 L 2.724 -7.426 L 2.795 -7.485 L 2.856 -7.553 L 2.907 -7.630 L 2.947 -7.713 L 2.974 -7.800 L 2.988 -7.891 L 2.988 -7.983 L 2.976 -8.074 L 2.951 -8.162 L 2.913 -8.246 L 2.863 -8.323 L 2.803 -8.392 L 2.734 -8.452 L 2.656 -8.501 L 2.573 -8.539 L 2.484 -8.564 L 2.393 -8.576 L 2.302 -8.575 L 2.211 -8.561 L 2.123 -8.534 L 1.954 -8.471 L 1.782 -8.413 L 1.609 -8.360 L 1.434 -8.313 L 1.258 -8.271 L 1.080 -8.234 L 0.902 -8.204 L 0.723 -8.178 L 0.543 -8.159 L 0.362 -8.145 L 0.181 -8.136 L 0.000 -8.133 L -0.181 -8.136 L -0.362 -8.145 L -0.543 -8.159 L -0.723 -8.178 L -0.902 -8.204 L -1.080 -8.234 L -1.258 -8.271 L -1.434 -8.313 L -1.609 -8.360 L -1.782 -8.413 L -1.954 -8.471 L -2.123 -8.534 L -2.172 -8.551 L -2.222 -8.564 L -2.272 -8.572 L -2.324 -8.577 L -2.375 -8.577 L -2.426 -8.574 L -2.477 -8.566 L -2.527 -8.554 L -2.576 -8.538 L -2.623 -8.518 L -2.669 -8.494 L -2.713 -8.467 L -2.754 -8.436 L -2.793 -8.403 L -2.828 -8.366 L -2.861 -8.326 L -2.890 -8.284 L -2.916 -8.239 L -2.938 -8.193 L -2.957 -8.145 L -2.971 -8.095 L -2.981 -8.045 L -2.988 -7.994 L -2.990 -7.943 L -2.988 -7.902 L -2.985 -7.862 L -2.978 -7.822 L -2.969 -7.783 L -2.958 -7.744 L -2.944 -7.706 L -2.928 -7.669 L -2.909 -7.633 L -2.888 -7.598 L -2.865 -7.565 L -2.840 -7.533 L -2.813 -7.503 L -2.784 -7.475 L -2.754 -7.449 L -2.721 -7.424 L -2.688 -7.402 L -2.653 -7.382 L -2.616 -7.364 L -2.579 -7.349 L -2.541 -7.336 L -2.502 -7.325 L -2.462 -7.317 L -2.422 -7.311 L -2.382 -7.308 L -2.329 -7.304 L -2.277 -7.297 L -2.225 -7.286 L -2.174 -7.273 L -2.124 -7.255 L -2.075 -7.235 L -2.028 -7.212 L -1.982 -7.186 L -1.938 -7.157 L -1.896 -7.125 L -1.856 -7.090 L -1.818 -7.053 L -1.783 -7.014 L -1.750 -6.972 L -1.720 -6.929 L -1.693 -6.884 L -1.669 -6.837 L -1.647 -6.788 L -1.629 -6.739 L -1.614 -6.688 L -1.603 -6.637 L -1.594 -6.584 L -1.589 -6.532 L -1.587 -6.479 L -1.587 -6.466 L -1.587 -6.452 L -1.587 -6.439 L -1.587 -6.425 L -1.587 -6.412 L -1.587 -6.398 L -1.587 -6.385 L -1.587 -6.371 L -1.587 -6.358 L -1.587 -6.345 L -1.587 -6.331 L -1.587 -6.318 L -1.587 -6.304 L -1.587 -6.291 L -1.587 -6.277 L -1.587 -6.264 L -1.587 -6.251 L -1.587 -6.237 L -1.587 -6.224 L -1.587 -6.210 L -1.587 -6.197 L -1.587 -6.183 L -1.587 -6.170 L -1.587 -6.156 L -1.589 -6.131 L -1.592 -6.106 L -1.598 -6.081 L -1.606 -6.057 L -1.617 -6.033 L -1.629 -6.011 L -1.644 -5.990 L -1.660 -5.970 L -1.678 -5.952 L -1.698 -5.936 L -1.719 -5.922 L -1.742 -5.910 L -1.765 -5.900 L -1.790 -5.892 L -1.815 -5.886 L -1.840 -5.883 L -1.866 -5.882 L -1.891 -5.884 L -1.916 -5.888 L -1.941 -5.894 L -1.965 -5.902 L -1.988 -5.913 L -2.011 -5.926 L -2.031 -5.941 L -2.071 -5.969 L -2.113 -5.994 L -2.157 -6.014 L -2.203 -6.030 L -2.251 -6.042 L -2.299 -6.050 L -2.347 -6.053 L -2.396 -6.051 L -2.444 -6.045 L -2.492 -6.034 L -2.538 -6.019 L -2.583 -6.000 L -2.626 -5.977 L -2.666 -5.950 L -2.704 -5.919 L -2.739 -5.885 L -2.770 -5.847 L -2.798 -5.807 L -2.822 -5.765 L -2.842 -5.720 L -2.857 -5.674 L -2.869 -5.627 L -2.876 -5.578 L -2.878 -5.530 L -2.876 -5.487 L -2.871 -5.444 L -2.862 -5.402 L -2.850 -5.361 L -2.834 -5.321 L -2.816 -5.282 L -2.794 -5.245 L -2.769 -5.210 L -2.741 -5.177 L -2.711 -5.147 L -2.678 -5.119 L -2.644 -5.094 L -2.607 -5.071 L -2.568 -5.052 L -2.529 -5.036 L -2.487 -5.024 L -2.445 -5.015 L -2.403 -5.009 L -2.360 -5.007 L -2.317 -5.008 L -2.274 -5.013 L -2.232 -5.021 L -2.191 -5.033 L -2.151 -5.048 L -2.120 -5.060 L -2.088 -5.069 L -2.055 -5.075 L -2.022 -5.079 L -1.989 -5.080 L -1.956 -5.079 L -1.923 -5.075 L -1.891 -5.068 L -1.859 -5.058 L -1.828 -5.046 L -1.798 -5.032 L -1.770 -5.015 L -1.743 -4.996 L -1.717 -4.974 L -1.694 -4.951 L -1.672 -4.926 L -1.653 -4.899 L -1.635 -4.871 L -1.620 -4.842 L -1.608 -4.811 L -1.598 -4.779 L -1.590 -4.747 L -1.586 -4.714 L -1.583 -4.681 L -1.583 -4.677 L -1.583 -4.673 L -1.583 -4.668 L -1.583 -4.664 L -1.583 -4.660 L -1.583 -4.656 L -1.583 -4.651 L -1.583 -4.647 L -1.583 -4.643 L -1.584 -4.639 L -1.584 -4.634 L -1.584 -4.630 L -1.584 -4.626 L -1.584 -4.622 L -1.584 -4.617 L -1.585 -4.613 L -1.585 -4.609 L -1.585 -4.605 L -1.586 -4.600 L -1.586 -4.596 L -1.586 -4.592 L -1.587 -4.588 L -1.587 -4.583 L -1.587 -4.579 L -1.587 -4.484 L -1.587 -4.388 L -1.587 -4.292 L -1.587 -4.197 L -1.587 -4.101 L -1.587 -4.006 L -1.587 -3.910 L -1.587 -3.815 L -1.587 -3.719 L -1.587 -3.624 L -1.587 -3.528 L -1.587 -3.433 L -1.587 -3.337 L -1.587 -3.241 L -1.587 -3.146 L -1.587 -3.050 L -1.587 -2.955 L -1.587 -2.859 L -1.587 -2.764 L -1.587 -2.668 L -1.587 -2.573 L -1.587 -2.477 L -1.587 -2.382 L -1.587 -2.286 L -1.719 -2.279 L -1.851 -2.272 L -1.982 -2.265 L -2.114 -2.259 L -2.246 -2.252 L -2.377 -2.245 L -2.509 -2.238 L -2.641 -2.231 L -2.772 -2.224 L -2.904 -2.217 L -3.036 -2.211 L -3.167 -2.204 L -3.299 -2.197 L -3.431 -2.190 L -3.562 -2.183 L -3.694 -2.176 L -3.826 -2.169 L -3.957 -2.162 L -4.089 -2.156 L -4.221 -2.149 L -4.352 -2.142 L -4.484 -2.135 L -4.616 -2.128 L -4.747 -2.121 L -4.747 -2.168 L -4.747 -2.214 L -4.747 -2.261 L -4.747 -2.308 L -4.747 -2.354 L -4.747 -2.401 L -4.747 -2.447 L -4.747 -2.494 L -4.747 -2.540 L -4.747 -2.587 L -4.747 -2.633 L -4.747 -2.680 L -4.747 -2.726 L -4.747 -2.773 L -4.747 -2.820 L -4.747 -2.866 L -4.747 -2.913 L -4.747 -2.959 L -4.747 -3.006 L -4.747 -3.052 L -4.747 -3.099 L -4.747 -3.145 L -4.747 -3.192 L -4.747 -3.238 L -4.787 -3.190 L -4.828 -3.141 L -4.868 -3.093 L -4.908 -3.044 L -4.948 -2.995 L -4.989 -2.947 L -5.029 -2.898 L -5.069 -2.849 L -5.109 -2.801 L -5.149 -2.752 L -5.190 -2.703 L -5.230 -2.655 L -5.270 -2.606 L -5.310 -2.557 L -5.351 -2.509 L -5.391 -2.460 L -5.431 -2.412 L -5.471 -2.363 L -5.512 -2.314 L -5.552 -2.266 L -5.592 -2.217 L -5.632 -2.168 L -5.672 -2.120 L -5.713 -2.071 L -5.736 -2.070 L -5.759 -2.068 L -5.782 -2.067 L -5.806 -2.065 L -5.829 -2.064 L -5.852 -2.062 L -5.876 -2.061 L -5.899 -2.060 L -5.922 -2.058 L -5.945 -2.057 L -5.969 -2.055 L -5.992 -2.054 L -6.015 -2.052 L -6.038 -2.051 L -6.062 -2.050 L -6.085 -2.048 L -6.108 -2.047 L -6.132 -2.045 L -6.155 -2.044 L -6.178 -2.042 L -6.201 -2.041 L -6.225 -2.040 L -6.248 -2.038 L -6.271 -2.037 L -6.271 -2.087 L -6.271 -2.137 L -6.271 -2.187 L -6.271 -2.237 L -6.271 -2.287 L -6.271 -2.337 L -6.271 -2.387 L -6.271 -2.437 L -6.271 -2.487 L -6.271 -2.537 L -6.271 -2.588 L -6.271 -2.638 L -6.271 -2.688 L -6.271 -2.738 L -6.271 -2.788 L -6.271 -2.838 L -6.271 -2.888 L -6.271 -2.938 L -6.271 -2.988 L -6.271 -3.038 L -6.271 -3.088 L -6.271 -3.138 L -6.271 -3.188 L -6.271 -3.238 L -6.304 -3.199 L -6.337 -3.159 L -6.370 -3.119 L -6.402 -3.080 L -6.435 -3.040 L -6.468 -3.000 L -6.501 -2.961 L -6.534 -2.921 L -6.567 -2.881 L -6.599 -2.842 L -6.632 -2.802 L -6.665 -2.762 L -6.698 -2.723 L -6.731 -2.683 L -6.763 -2.643 L -6.796 -2.603 L -6.829 -2.564 L -6.862 -2.524 L -6.895 -2.484 L -6.928 -2.445 L -6.960 -2.405 L -6.993 -2.365 L -7.026 -2.326 L -7.059 -2.286 L -7.069 -2.274 L -7.079 -2.261 L -7.089 -2.249 L -7.099 -2.236 L -7.109 -2.224 L -7.119 -2.212 L -7.129 -2.199 L -7.139 -2.187 L -7.149 -2.174 L -7.159 -2.162 L -7.169 -2.150 L -7.179 -2.137 L -7.189 -2.125 L -7.199 -2.112 L -7.209 -2.100 L -7.219 -2.088 L -7.229 -2.075 L -7.239 -2.063 L -7.249 -2.050 L -7.259 -2.038 L -7.269 -2.026 L -7.279 -2.013 L -7.289 -2.001 L -7.299 -1.988 L -7.319 -1.987 L -7.340 -1.986 L -7.361 -1.985 L -7.381 -1.984 L -7.402 -1.983 L -7.423 -1.982 L -7.444 -1.981 L -7.464 -1.980 L -7.485 -1.979 L -7.506 -1.978 L -7.526 -1.976 L -7.547 -1.975 L -7.568 -1.974 L -7.588 -1.973 L -7.609 -1.972 L -7.630 -1.971 L -7.650 -1.970 L -7.671 -1.969 L -7.692 -1.968 L -7.712 -1.967 L -7.733 -1.966 L -7.754 -1.965 L -7.775 -1.964 L -7.795 -1.962 L -7.795 -2.016 L -7.795 -2.069 L -7.795 -2.122 L -7.795 -2.175 L -7.795 -2.228 L -7.795 -2.281 L -7.795 -2.335 L -7.795 -2.388 L -7.795 -2.441 L -7.795 -2.494 L -7.795 -2.547 L -7.795 -2.600 L -7.795 -2.654 L -7.795 -2.707 L -7.795 -2.760 L -7.795 -2.813 L -7.795 -2.866 L -7.795 -2.919 L -7.795 -2.973 L -7.795 -3.026 L -7.795 -3.079 L -7.795 -3.132 L -7.795 -3.185 L -7.795 -3.239 L -7.841 -3.183 L -7.887 -3.127 L -7.933 -3.072 L -7.979 -3.016 L -8.025 -2.961 L -8.071 -2.905 L -8.117 -2.850 L -8.163 -2.794 L -8.209 -2.738 L -8.255 -2.683 L -8.301 -2.627 L -8.347 -2.572 L -8.393 -2.516 L -8.438 -2.461 L -8.484 -2.405 L -8.530 -2.350 L -8.576 -2.294 L -8.622 -2.238 L -8.668 -2.183 L -8.714 -2.127 L -8.760 -2.072 L -8.806 -2.016 L -8.852 -1.961 L -8.898 -1.905 L -8.910 -1.905 L -8.923 -1.905 L -8.935 -1.905 L -8.947 -1.905 L -8.960 -1.905 L -8.972 -1.905 L -8.984 -1.905 L -8.997 -1.905 L -9.009 -1.905 L -9.022 -1.905 L -9.034 -1.905 L -9.046 -1.905 L -9.059 -1.905 L -9.071 -1.905 L -9.083 -1.905 L -9.096 -1.905 L -9.108 -1.905 L -9.121 -1.905 L -9.133 -1.905 L -9.145 -1.905 L -9.158 -1.905 L -9.170 -1.905 L -9.182 -1.905 L -9.195 -1.905 L -9.319 -1.901 L -9.443 -1.889 L -9.566 -1.868 L -9.688 -1.840 L -9.807 -1.804 L -9.924 -1.760 L -10.037 -1.709 L -10.147 -1.650 L -10.253 -1.584 L -10.354 -1.511 L -10.451 -1.432 L -10.542 -1.347 L -10.627 -1.256 L -10.706 -1.160 L -10.779 -1.058 L -10.845 -0.952 L -10.903 -0.843 L -10.955 -0.729 L -10.999 -0.612 L -11.035 -0.493 L -11.063 -0.372 L -11.084 -0.249 L -11.096 -0.125 L -11.100 0.000 L -11.096 0.125 L -11.084 0.249 L -11.063 0.372 L -11.035 0.493 L -10.999 0.612 L -10.955 0.729 L -10.903 0.843 L -10.845 0.953 L -10.779 1.058 L -10.706 1.160 L -10.627 1.256 L -10.542 1.347 L -10.451 1.432 L -10.354 1.511 L -10.253 1.584 L -10.147 1.650 L -10.037 1.709 L -9.924 1.760 L -9.807 1.804 L -9.688 1.840 L -9.566 1.868 L -9.443 1.889 L -9.319 1.901 L -9.195 1.905 L -9.182 1.905 L -9.170 1.905 L -9.158 1.905 L -9.145 1.905 L -9.133 1.905 L -9.121 1.905 L -9.108 1.905 L -9.096 1.905 L -9.083 1.905 L -9.071 1.905 L -9.059 1.905 L -9.046 1.905 L -9.034 1.905 L -9.022 1.905 L -9.009 1.905 L -8.997 1.905 L -8.984 1.905 L -8.972 1.905 L -8.960 1.905 L -8.947 1.905 L -8.935 1.905 L -8.923 1.905 L -8.910 1.905 L -8.898 1.905 L -8.852 1.961 L -8.806 2.016 L -8.760 2.072 L -8.714 2.127 L -8.668 2.183 L -8.622 2.238 L -8.576 2.294 L -8.530 2.350 L -8.484 2.405 L -8.438 2.461 L -8.393 2.516 L -8.347 2.572 L -8.301 2.627 L -8.255 2.683 L -8.209 2.738 L -8.163 2.794 L -8.117 2.850 L -8.071 2.905 L -8.025 2.961 L -7.979 3.016 L -7.933 3.072 L -7.887 3.127 L -7.841 3.183 L -7.795 3.239 L -7.795 3.185 L -7.795 3.132 L -7.795 3.079 L -7.795 3.026 L -7.795 2.973 L -7.795 2.919 L -7.795 2.866 L -7.795 2.813 L -7.795 2.760 L -7.795 2.707 L -7.795 2.654 L -7.795 2.600 L -7.795 2.547 L -7.795 2.494 L -7.795 2.441 L -7.795 2.388 L -7.795 2.335 L -7.795 2.281 L -7.795 2.228 L -7.795 2.175 L -7.795 2.122 L -7.795 2.069 L -7.795 2.016 L -7.795 1.962 L -7.775 1.964 L -7.754 1.965 L -7.733 1.966 L -7.712 1.967 L -7.692 1.968 L -7.671 1.969 L -7.650 1.970 L -7.630 1.971 L -7.609 1.972 L -7.588 1.973 L -7.568 1.974 L -7.547 1.975 L -7.526 1.976 L -7.506 1.978 L -7.485 1.979 L -7.464 1.980 L -7.444 1.981 L -7.423 1.982 L -7.402 1.983 L -7.381 1.984 L -7.361 1.985 L -7.340 1.986 L -7.319 1.987 L -7.299 1.988 L -7.289 2.001 L -7.279 2.013 L -7.269 2.026 L -7.259 2.038 L -7.249 2.050 L -7.239 2.063 L -7.229 2.075 L -7.219 2.088 L -7.209 2.100 L -7.199 2.112 L -7.189 2.125 L -7.179 2.137 L -7.169 2.150 L -7.159 2.162 L -7.149 2.174 L -7.139 2.187 L -7.129 2.199 L -7.119 2.212 L -7.109 2.224 L -7.099 2.236 L -7.089 2.249 L -7.079 2.261 L -7.069 2.274 L -7.059 2.286 L -7.026 2.326 L -6.993 2.365 L -6.960 2.405 L -6.928 2.445 L -6.895 2.484 L -6.862 2.524 L -6.829 2.564 L -6.796 2.603 L -6.763 2.643 L -6.731 2.683 L -6.698 2.723 L -6.665 2.762 L -6.632 2.802 L -6.599 2.842 L -6.567 2.881 L -6.534 2.921 L -6.501 2.961 L -6.468 3.000 L -6.435 3.040 L -6.402 3.080 L -6.370 3.119 L -6.337 3.159 L -6.304 3.199 L -6.271 3.238 L -6.271 3.188 L -6.271 3.138 L -6.271 3.088 L -6.271 3.038 L -6.271 2.988 L -6.271 2.938 L -6.271 2.888 L -6.271 2.838 L -6.271 2.788 L -6.271 2.738 L -6.271 2.688 L -6.271 2.638 L -6.271 2.588 L -6.271 2.537 L -6.271 2.487 L -6.271 2.437 L -6.271 2.387 L -6.271 2.337 L -6.271 2.287 L -6.271 2.237 L -6.271 2.187 L -6.271 2.137 L -6.271 2.087 L -6.271 2.037 L -6.248 2.038 L -6.225 2.040 L -6.201 2.041 L -6.178 2.042 L -6.155 2.044 L -6.132 2.045 L -6.108 2.047 L -6.085 2.048 L -6.062 2.050 L -6.038 2.051 L -6.015 2.052 L -5.992 2.054 L -5.969 2.055 L -5.945 2.057 L -5.922 2.058 L -5.899 2.060 L -5.876 2.061 L -5.852 2.062 L -5.829 2.064 L -5.806 2.065 L -5.782 2.067 L -5.759 2.068 L -5.736 2.070 L -5.713 2.071 L -5.672 2.120 L -5.632 2.168 L -5.592 2.217 L -5.552 2.266 L -5.512 2.314 L -5.471 2.363 L -5.431 2.412 L -5.391 2.460 L -5.351 2.509 L -5.310 2.557 L -5.270 2.606 L -5.230 2.655 L -5.190 2.703 L -5.149 2.752 L -5.109 2.801 L -5.069 2.849 L -5.029 2.898 L -4.989 2.947 L -4.948 2.995 L -4.908 3.044 L -4.868 3.093 L -4.828 3.141 L -4.787 3.190 L -4.747 3.238 L -4.747 3.192 L -4.747 3.145 L -4.747 3.099 L -4.747 3.052 L -4.747 3.006 L -4.747 2.959 L -4.747 2.913 L -4.747 2.866 L -4.747 2.820 L -4.747 2.773 L -4.747 2.726 L -4.747 2.680 L -4.747 2.633 L -4.747 2.587 L -4.747 2.540 L -4.747 2.494 L -4.747 2.447 L -4.747 2.401 L -4.747 2.354 L -4.747 2.308 L -4.747 2.261 L -4.747 2.214 L -4.747 2.168 L -4.747 2.121 L -4.616 2.128 L -4.484 2.135 L -4.352 2.142 L -4.221 2.149 L -4.089 2.156 L -3.957 2.162 L -3.826 2.169 L -3.694 2.176 L -3.562 2.183 L -3.431 2.190 L -3.299 2.197 L -3.167 2.204 L -3.036 2.211 L -2.904 2.217 L -2.772 2.224 L -2.641 2.231 L -2.509 2.238 L -2.377 2.245 L -2.246 2.252 L -2.114 2.259 L -1.982 2.265 L -1.851 2.272 L -1.719 2.279 L -1.587 2.286 L -1.587 2.382 L -1.587 2.477 L -1.587 2.573 L -1.587 2.668 L -1.587 2.764 L -1.587 2.859 L -1.587 2.955 L -1.587 3.050 L -1.587 3.146 L -1.587 3.241 L -1.587 3.337 L -1.587 3.433 L -1.587 3.528 L -1.587 3.624 L -1.587 3.719 L -1.587 3.815 L -1.587 3.910 L -1.587 4.006 L -1.587 4.101 L -1.587 4.197 L -1.587 4.292 L -1.587 4.388 L -1.587 4.484 L -1.587 4.579 L -1.587 4.583 L -1.587 4.588 L -1.586 4.592 L -1.586 4.596 L -1.586 4.600 L -1.585 4.605 L -1.585 4.609 L -1.585 4.613 L -1.584 4.617 L -1.584 4.622 L -1.584 4.626 L -1.584 4.630 L -1.584 4.634 L -1.584 4.639 L -1.583 4.643 L -1.583 4.647 L -1.583 4.651 L -1.583 4.656 L -1.583 4.660 L -1.583 4.664 L -1.583 4.668 L -1.583 4.673 L -1.583 4.677 L -1.583 4.681 L -1.586 4.714 L -1.590 4.747 L -1.598 4.779 L -1.608 4.811 L -1.620 4.842 L -1.635 4.871 L -1.653 4.899 L -1.672 4.926 L -1.694 4.951 L -1.717 4.974 L -1.743 4.996 L -1.770 5.015 L -1.798 5.032 L -1.828 5.046 L -1.859 5.058 L -1.891 5.068 L -1.923 5.075 L -1.956 5.079 L -1.989 5.080 L -2.022 5.079 L -2.055 5.075 L -2.088 5.069 L -2.120 5.060 L -2.151 5.048 L -2.191 5.033 L -2.232 5.021 L -2.274 5.013 L -2.317 5.008 L -2.360 5.007 L -2.403 5.009 L -2.445 5.015 L -2.487 5.024 L -2.529 5.036 L -2.568 5.052 L -2.607 5.071 L -2.644 5.094 L -2.678 5.119 L -2.711 5.147 L -2.741 5.177 L -2.769 5.210 L -2.794 5.245 L -2.816 5.282 L -2.834 5.321 L -2.850 5.361 L -2.862 5.402 L -2.871 5.444 L -2.876 5.487 L -2.878 5.530 L -2.876 5.578 L -2.869 5.627 L -2.857 5.674 L -2.842 5.720 L -2.822 5.765 L -2.798 5.807 L -2.770 5.847 L -2.739 5.885 L -2.704 5.919 L -2.666 5.950 L -2.626 5.977 L -2.583 6.000 L -2.538 6.019 L -2.492 6.034 L -2.444 6.045 L -2.396 6.051 L -2.347 6.053 L -2.299 6.050 L -2.251 6.042 L -2.203 6.030 L -2.157 6.014 L -2.113 5.994 L -2.071 5.969 L -2.031 5.941 L -2.011 5.926 L -1.988 5.913 L -1.965 5.902 L -1.941 5.894 L -1.916 5.888 L -1.891 5.884 L -1.866 5.882 L -1.840 5.883 L -1.815 5.886 L -1.790 5.892 L -1.765 5.900 L -1.742 5.910 L -1.719 5.922 L -1.698 5.936 L -1.678 5.952 L -1.660 5.970 L -1.644 5.990 L -1.629 6.011 L -1.617 6.033 L -1.606 6.057 L -1.598 6.081 L -1.592 6.106 L -1.589 6.131 L -1.587 6.156 L -1.587 6.170 L -1.587 6.183 L -1.587 6.197 L -1.587 6.210 L -1.587 6.224 L -1.587 6.237 L -1.587 6.251 L -1.587 6.264 L -1.587 6.277 L -1.587 6.291 L -1.587 6.304 L -1.587 6.318 L -1.587 6.331 L -1.587 6.345 L -1.587 6.358 L -1.587 6.371 L -1.587 6.385 L -1.587 6.398 L -1.587 6.412 L -1.587 6.425 L -1.587 6.439 L -1.587 6.452 L -1.587 6.466 L -1.587 6.479 L -1.589 6.532 L -1.594 6.584 L -1.603 6.637 L -1.614 6.688 L -1.629 6.739 L -1.647 6.788 L -1.669 6.837 L -1.693 6.884 L -1.720 6.929 L -1.750 6.972 L -1.783 7.014 L -1.818 7.053 L -1.856 7.090 L -1.896 7.125 L -1.938 7.157 L -1.982 7.186 L -2.028 7.212 L -2.075 7.235 L -2.124 7.255 L -2.174 7.273 L -2.225 7.286 L -2.277 7.297 L -2.329 7.304 L -2.382 7.308 L -2.422 7.311 L -2.462 7.317 L -2.502 7.325 L -2.541 7.336 L -2.579 7.349 L -2.616 7.364 L -2.653 7.382 L -2.688 7.402 L -2.721 7.424 L -2.754 7.449 L -2.784 7.475 L -2.813 7.503 L -2.840 7.533 L -2.865 7.565 L -2.888 7.598 L -2.909 7.633 L -2.928 7.669 L -2.944 7.706 L -2.958 7.744 L -2.969 7.783 L -2.978 7.822 L -2.985 7.862 L -2.988 7.902 L -2.990 7.943 L -2.988 7.994 L -2.981 8.045 L -2.971 8.095 L -2.957 8.145 L -2.938 8.193 L -2.916 8.239 L -2.890 8.284 L -2.861 8.326 L -2.828 8.366 L -2.793 8.403 L -2.754 8.436 L -2.713 8.467 L -2.669 8.494 L -2.623 8.518 L -2.576 8.538 L -2.527 8.554 L -2.477 8.566 L -2.426 8.574 L -2.375 8.577 L -2.324 8.577 L -2.272 8.572 L -2.222 8.564 L -2.172 8.551 L -2.123 8.534 L -1.954 8.471 L -1.782 8.413 L -1.609 8.360 L -1.434 8.313 L -1.258 8.271 L -1.080 8.234 L -0.902 8.204 L -0.723 8.178 L -0.543 8.159 L -0.362 8.145 L -0.181 8.136 L 0.000 8.133 L 0.181 8.136 L 0.362 8.145 L 0.543 8.159 L 0.723 8.178 L 0.902 8.204 L 1.080 8.234 L 1.258 8.271 L 1.434 8.313 L 1.609 8.360 L 1.782 8.413 L 1.954 8.471 L 2.123 8.534 L 2.211 8.561 L 2.302 8.575 L 2.393 8.576 L 2.484 8.564 L 2.573 8.539 L 2.656 8.501 L 2.734 8.452 L 2.803 8.392 L 2.863 8.323 L 2.913 8.246 L 2.951 8.162 L 2.976 8.074 L 2.988 7.983 L 2.988 7.891 L 2.974 7.800 L 2.947 7.713 L 2.907 7.630 L 2.856 7.553 L 2.795 7.485 L 2.724 7.426 L 2.646 7.379 L 2.562 7.342 L 2.473 7.319 L 2.382 7.308 L 2.329 7.304 L 2.277 7.297 L 2.225 7.286 L 2.174 7.273 L 2.124 7.255 L 2.075 7.235 L 2.028 7.212 L 1.982 7.186 L 1.938 7.157 L 1.896 7.125 L 1.856 7.090 L 1.818 7.053 L 1.783 7.014 L 1.750 6.972 L 1.720 6.929 L 1.693 6.884 L 1.669 6.837 L 1.647 6.788 L 1.629 6.739 L 1.614 6.688 L 1.603 6.637 L 1.594 6.584 L 1.589 6.532 L 1.587 6.479 L 1.587 6.466 L 1.587 6.452 L 1.587 6.439 L 1.587 6.425 L 1.587 6.412 L 1.587 6.398 L 1.587 6.385 L 1.587 6.371 L 1.587 6.358 L 1.587 6.345 L 1.587 6.331 L 1.587 6.318 L 1.587 6.304 L 1.587 6.291 L 1.587 6.277 L 1.587 6.264 L 1.587 6.251 L 1.587 6.237 L 1.587 6.224 L 1.587 6.210 L 1.587 6.197 L 1.587 6.183 L 1.587 6.170 L 1.587 6.156 L 1.589 6.131 L 1.592 6.106 L 1.598 6.081 L 1.606 6.057 L 1.617 6.033 L 1.629 6.011 L 1.644 5.990 L 1.660 5.970 L 1.678 5.952 L 1.698 5.936 L 1.719 5.922 L 1.742 5.910 L 1.765 5.900 L 1.790 5.892 L 1.815 5.886 L 1.840 5.883 L 1.866 5.882 L 1.891 5.884 L 1.916 5.888 L 1.941 5.894 L 1.965 5.902 L 1.988 5.913 L 2.011 5.926 L 2.031 5.941 L 2.108 5.991 L 2.192 6.027 L 2.282 6.048 L 2.373 6.052 L 2.464 6.041 L 2.551 6.014 L 2.633 5.973 L 2.706 5.917 L 2.768 5.850 L 2.818 5.773 L 2.853 5.688 L 2.873 5.599 L 2.877 5.508 L 2.865 5.417 L 2.838 5.329 L 2.796 5.248 L 2.740 5.175 L 2.672 5.114 L 2.595 5.065 L 2.510 5.030 L 2.420 5.011 L 2.329 5.007 L 2.238 5.020 L 2.151 5.048 L 2.120 5.060 L 2.088 5.069 L 2.055 5.075 L 2.022 5.079 L 1.989 5.080 L 1.956 5.079 L 1.923 5.075 L 1.891 5.068 L 1.859 5.058 L 1.828 5.046 L 1.798 5.032 L 1.770 5.015 L 1.743 4.996 L 1.717 4.974 L 1.694 4.951 L 1.672 4.926 L 1.653 4.899 L 1.635 4.871 L 1.620 4.842 L 1.608 4.811 L 1.598 4.779 L 1.590 4.747 L 1.586 4.714 L 1.583 4.681 L 1.583 4.680 L 1.583 4.680 L 1.583 4.679 L 1.583 4.678 L 1.583 4.677 L 1.583 4.677 L 1.583 4.676 L 1.583 4.675 L 1.583 4.674 L 1.583 4.673 L 1.583 4.673 L 1.583 4.672 L 1.583 4.671 L 1.583 4.670 L 1.583 4.670 L 1.583 4.669 L 1.583 4.668 L 1.583 4.667 L 1.583 4.667 L 1.583 4.666 L 1.583 4.665 L 1.583 4.664 L 1.583 4.664 L 1.583 4.663 Z" fill="url(#dxTpe)" stroke="#0A2A4E" stroke-width="0.18" stroke-linejoin="round"/>
</svg>
