<svg xmlns="http://www.w3.org/2000/svg" width="1600" height="1040" viewBox="0 0 1600 1040"><rect width="1600" height="1040" fill="#F7F5F0"/><rect x="0" y="0" width="1600" height="118" fill="#0A2A4E"/><text x="800.0" y="46" font-family="Archivo, Arial, sans-serif" font-size="20" font-weight="800" letter-spacing="2" fill="#CDB795" text-anchor="middle">AMERIDEX MATERIALS</text><text x="800.0" y="90" font-family="Archivo, Arial, sans-serif" font-size="40" font-weight="800" fill="#FFFFFF" text-anchor="middle">What is inside the board: cellular PVC vs composite</text><text x="130" y="193" font-family="Archivo, Arial, sans-serif" font-size="27" font-weight="800" fill="#0A2A4E" text-anchor="start">CELLULAR PVC  (AMERIDEX)</text><text x="900" y="193" font-family="Archivo, Arial, sans-serif" font-size="24" font-weight="800" fill="#2E7D5B" text-anchor="start">wins</text><path d="M 130 237 Q 130 215 152 215 L 868 215 Q 890 215 890 237 L 890 357 Q 890 365 882 365 L 138 365 Q 130 365 130 357 Z" fill="#E9EEF3" stroke="#0A2A4E" stroke-width="2.5"/><path d="M 240 365 L 138 365 Q 130 365 130 357 L 130 237 Q 130 215 152 215 L 868 215 Q 890 215 890 237 L 890 357 Q 890 365 882 365 L 780 365 L 780 349 L 874 349 L 874 237 Q 874 231 868 231 L 152 231 Q 146 231 146 237 L 146 349 L 240 349 Z" fill="#CDB795" stroke="#B8A270" stroke-width="1.5"/><rect x="152" y="218" width="716" height="5" rx="2.5" fill="#FFFFFF" opacity="0.5"/><line x1="240" y1="349" x2="240" y2="375" stroke="#B8A270" stroke-width="2" stroke-dasharray="3 3"/><line x1="780" y1="349" x2="780" y2="375" stroke="#B8A270" stroke-width="2" stroke-dasharray="3 3"/><circle cx="164" cy="255" r="3.2" fill="#CBD6E0"/><circle cx="164" cy="285" r="3.2" fill="#CBD6E0"/><circle cx="164" cy="315" r="3.2" fill="#CBD6E0"/><circle cx="164" cy="345" r="3.2" fill="#CBD6E0"/><circle cx="206" cy="255" r="3.2" fill="#CBD6E0"/><circle cx="206" cy="285" r="3.2" fill="#CBD6E0"/><circle cx="206" cy="315" r="3.2" fill="#CBD6E0"/><circle cx="206" cy="345" r="3.2" fill="#CBD6E0"/><circle cx="248" cy="255" r="3.2" fill="#CBD6E0"/><circle cx="248" cy="285" r="3.2" fill="#CBD6E0"/><circle cx="248" cy="315" r="3.2" fill="#CBD6E0"/><circle cx="248" cy="345" r="3.2" fill="#CBD6E0"/><circle cx="290" cy="255" r="3.2" fill="#CBD6E0"/><circle cx="290" cy="285" r="3.2" fill="#CBD6E0"/><circle cx="290" cy="315" r="3.2" fill="#CBD6E0"/><circle cx="290" cy="345" r="3.2" fill="#CBD6E0"/><circle cx="332" cy="255" r="3.2" fill="#CBD6E0"/><circle cx="332" cy="285" r="3.2" fill="#CBD6E0"/><circle cx="332" cy="315" r="3.2" fill="#CBD6E0"/><circle cx="332" cy="345" r="3.2" fill="#CBD6E0"/><circle cx="374" cy="255" r="3.2" fill="#CBD6E0"/><circle cx="374" cy="285" r="3.2" fill="#CBD6E0"/><circle cx="374" cy="315" r="3.2" fill="#CBD6E0"/><circle cx="374" cy="345" r="3.2" fill="#CBD6E0"/><circle cx="416" cy="255" r="3.2" fill="#CBD6E0"/><circle cx="416" cy="285" r="3.2" fill="#CBD6E0"/><circle cx="416" cy="315" r="3.2" fill="#CBD6E0"/><circle cx="416" cy="345" r="3.2" fill="#CBD6E0"/><circle cx="458" cy="255" r="3.2" fill="#CBD6E0"/><circle cx="458" cy="285" r="3.2" fill="#CBD6E0"/><circle cx="458" cy="315" r="3.2" fill="#CBD6E0"/><circle cx="458" cy="345" r="3.2" fill="#CBD6E0"/><circle cx="500" cy="255" r="3.2" fill="#CBD6E0"/><circle cx="500" cy="285" r="3.2" fill="#CBD6E0"/><circle cx="500" cy="315" r="3.2" fill="#CBD6E0"/><circle cx="500" cy="345" r="3.2" fill="#CBD6E0"/><circle cx="542" cy="255" r="3.2" fill="#CBD6E0"/><circle cx="542" cy="285" r="3.2" fill="#CBD6E0"/><circle cx="542" cy="315" r="3.2" fill="#CBD6E0"/><circle cx="542" cy="345" r="3.2" fill="#CBD6E0"/><circle cx="584" cy="255" r="3.2" fill="#CBD6E0"/><circle cx="584" cy="285" r="3.2" fill="#CBD6E0"/><circle cx="584" cy="315" r="3.2" fill="#CBD6E0"/><circle cx="584" cy="345" r="3.2" fill="#CBD6E0"/><circle cx="626" cy="255" r="3.2" fill="#CBD6E0"/><circle cx="626" cy="285" r="3.2" fill="#CBD6E0"/><circle cx="626" cy="315" r="3.2" fill="#CBD6E0"/><circle cx="626" cy="345" r="3.2" fill="#CBD6E0"/><circle cx="668" cy="255" r="3.2" fill="#CBD6E0"/><circle cx="668" cy="285" r="3.2" fill="#CBD6E0"/><circle cx="668" cy="315" r="3.2" fill="#CBD6E0"/><circle cx="668" cy="345" r="3.2" fill="#CBD6E0"/><circle cx="710" cy="255" r="3.2" fill="#CBD6E0"/><circle cx="710" cy="285" r="3.2" fill="#CBD6E0"/><circle cx="710" cy="315" r="3.2" fill="#CBD6E0"/><circle cx="710" cy="345" r="3.2" fill="#CBD6E0"/><circle cx="752" cy="255" r="3.2" fill="#CBD6E0"/><circle cx="752" cy="285" r="3.2" fill="#CBD6E0"/><circle cx="752" cy="315" r="3.2" fill="#CBD6E0"/><circle cx="752" cy="345" r="3.2" fill="#CBD6E0"/><circle cx="794" cy="255" r="3.2" fill="#CBD6E0"/><circle cx="794" cy="285" r="3.2" fill="#CBD6E0"/><circle cx="794" cy="315" r="3.2" fill="#CBD6E0"/><circle cx="794" cy="345" r="3.2" fill="#CBD6E0"/><circle cx="836" cy="255" r="3.2" fill="#CBD6E0"/><circle cx="836" cy="285" r="3.2" fill="#CBD6E0"/><circle cx="836" cy="315" r="3.2" fill="#CBD6E0"/><circle cx="836" cy="345" r="3.2" fill="#CBD6E0"/><line x1="890" y1="226" x2="930" y2="226" stroke="#6B7785" stroke-width="2"/><text x="940" y="221" font-family="Archivo, Arial, sans-serif" font-size="21" font-weight="700" fill="#6B7785" text-anchor="start">Proprietary ASA cap</text><text x="940" y="248" font-family="Archivo, Arial, sans-serif" font-size="19" font-weight="400" fill="#6B7785" text-anchor="start">wraps top, sides, and</text><text x="940" y="271" font-family="Archivo, Arial, sans-serif" font-size="19" font-weight="400" fill="#6B7785" text-anchor="start">~1 in. under each edge</text><line x1="890" y1="335" x2="930" y2="335" stroke="#6B7785" stroke-width="2"/><text x="940" y="330" font-family="Archivo, Arial, sans-serif" font-size="21" font-weight="700" fill="#6B7785" text-anchor="start">Solid PVC core,</text><text x="940" y="356" font-family="Archivo, Arial, sans-serif" font-size="19" font-weight="400" fill="#6B7785" text-anchor="start">all the way through</text><line x1="130" y1="381" x2="890" y2="381" stroke="#2E7D5B" stroke-width="3"/><text x="130" y="411" font-family="Archivo, Arial, sans-serif" font-size="22" font-weight="700" fill="#2E7D5B" text-anchor="start">A cut edge is just more PVC</text><text x="130" y="538" font-family="Archivo, Arial, sans-serif" font-size="27" font-weight="800" fill="#0A2A4E" text-anchor="start">CAPPED COMPOSITE</text><path d="M 130 582 Q 130 560 152 560 L 868 560 Q 890 560 890 582 L 890 702 Q 890 710 882 710 L 138 710 Q 130 710 130 702 Z" fill="#CDB795" opacity="0.6"/><path d="M 142 588 Q 142 572 158 572 L 862 572 Q 878 572 878 588 L 878 710 Q 878 710 878 710 L 142 710 Q 142 710 142 710 Z" fill="#A9743B"/><rect x="459" y="650" width="57" height="3" rx="1.5" fill="#6B451F" opacity="0.33"/><rect x="735" y="605" width="52" height="3" rx="1.5" fill="#6B451F" opacity="0.33"/><rect x="692" y="593" width="32" height="3" rx="1.5" fill="#6B451F" opacity="0.21"/><rect x="584" y="655" width="36" height="3" rx="1.5" fill="#6B451F" opacity="0.32"/><rect x="571" y="601" width="21" height="3" rx="1.5" fill="#7E5326" opacity="0.35"/><rect x="174" y="689" width="44" height="3" rx="1.5" fill="#C68A4C" opacity="0.43"/><rect x="451" y="685" width="41" height="3" rx="1.5" fill="#C68A4C" opacity="0.38"/><rect x="153" y="592" width="46" height="3" rx="1.5" fill="#6B451F" opacity="0.31"/><rect x="831" y="685" width="48" height="3" rx="1.5" fill="#7E5326" opacity="0.28"/><rect x="501" y="586" width="43" height="3" rx="1.5" fill="#7E5326" opacity="0.21"/><rect x="729" y="629" width="58" height="3" rx="1.5" fill="#7E5326" opacity="0.45"/><rect x="296" y="695" width="22" height="3" rx="1.5" fill="#6B451F" opacity="0.30"/><rect x="422" y="591" width="45" height="3" rx="1.5" fill="#C68A4C" opacity="0.43"/><rect x="380" y="620" width="21" height="3" rx="1.5" fill="#7E5326" opacity="0.31"/><rect x="242" y="668" width="20" height="3" rx="1.5" fill="#C68A4C" opacity="0.33"/><rect x="272" y="650" width="38" height="3" rx="1.5" fill="#6B451F" opacity="0.24"/><rect x="676" y="633" width="35" height="3" rx="1.5" fill="#7E5326" opacity="0.31"/><rect x="150" y="687" width="59" height="3" rx="1.5" fill="#7E5326" opacity="0.37"/><rect x="294" y="630" width="54" height="3" rx="1.5" fill="#7E5326" opacity="0.39"/><rect x="179" y="600" width="38" height="3" rx="1.5" fill="#6B451F" opacity="0.18"/><rect x="375" y="618" width="23" height="3" rx="1.5" fill="#6B451F" opacity="0.21"/><rect x="585" y="584" width="35" height="3" rx="1.5" fill="#7E5326" opacity="0.38"/><rect x="806" y="641" width="43" height="3" rx="1.5" fill="#7E5326" opacity="0.46"/><rect x="579" y="620" width="29" height="3" rx="1.5" fill="#6B451F" opacity="0.38"/><rect x="280" y="672" width="58" height="3" rx="1.5" fill="#C68A4C" opacity="0.24"/><rect x="753" y="656" width="37" height="3" rx="1.5" fill="#7E5326" opacity="0.21"/><rect x="500" y="613" width="50" height="3" rx="1.5" fill="#C68A4C" opacity="0.31"/><rect x="713" y="655" width="32" height="3" rx="1.5" fill="#6B451F" opacity="0.24"/><rect x="818" y="597" width="39" height="3" rx="1.5" fill="#6B451F" opacity="0.39"/><rect x="570" y="616" width="57" height="3" rx="1.5" fill="#7E5326" opacity="0.25"/><rect x="197" y="632" width="30" height="3" rx="1.5" fill="#C68A4C" opacity="0.19"/><rect x="402" y="652" width="25" height="3" rx="1.5" fill="#C68A4C" opacity="0.30"/><rect x="821" y="662" width="48" height="3" rx="1.5" fill="#7E5326" opacity="0.37"/><rect x="553" y="695" width="39" height="3" rx="1.5" fill="#C68A4C" opacity="0.29"/><rect x="809" y="585" width="45" height="3" rx="1.5" fill="#6B451F" opacity="0.33"/><rect x="363" y="599" width="23" height="3" rx="1.5" fill="#C68A4C" opacity="0.32"/><rect x="654" y="692" width="49" height="3" rx="1.5" fill="#C68A4C" opacity="0.41"/><rect x="391" y="666" width="56" height="3" rx="1.5" fill="#C68A4C" opacity="0.46"/><rect x="796" y="586" width="40" height="3" rx="1.5" fill="#6B451F" opacity="0.18"/><rect x="412" y="653" width="44" height="3" rx="1.5" fill="#6B451F" opacity="0.21"/><rect x="229" y="613" width="37" height="3" rx="1.5" fill="#6B451F" opacity="0.29"/><rect x="625" y="638" width="39" height="3" rx="1.5" fill="#6B451F" opacity="0.35"/><rect x="663" y="586" width="44" height="3" rx="1.5" fill="#7E5326" opacity="0.33"/><rect x="805" y="596" width="51" height="3" rx="1.5" fill="#C68A4C" opacity="0.39"/><rect x="325" y="583" width="32" height="3" rx="1.5" fill="#7E5326" opacity="0.40"/><rect x="505" y="674" width="34" height="3" rx="1.5" fill="#C68A4C" opacity="0.48"/><rect x="760" y="622" width="47" height="3" rx="1.5" fill="#C68A4C" opacity="0.24"/><rect x="700" y="674" width="28" height="3" rx="1.5" fill="#7E5326" opacity="0.25"/><rect x="549" y="621" width="25" height="3" rx="1.5" fill="#7E5326" opacity="0.34"/><rect x="636" y="698" width="31" height="3" rx="1.5" fill="#C68A4C" opacity="0.23"/><rect x="472" y="695" width="53" height="3" rx="1.5" fill="#6B451F" opacity="0.30"/><rect x="488" y="620" width="54" height="3" rx="1.5" fill="#C68A4C" opacity="0.49"/><rect x="369" y="683" width="31" height="3" rx="1.5" fill="#6B451F" opacity="0.37"/><rect x="635" y="652" width="32" height="3" rx="1.5" fill="#7E5326" opacity="0.43"/><rect x="588" y="631" width="28" height="3" rx="1.5" fill="#C68A4C" opacity="0.43"/><rect x="312" y="599" width="22" height="3" rx="1.5" fill="#C68A4C" opacity="0.38"/><rect x="225" y="647" width="46" height="3" rx="1.5" fill="#7E5326" opacity="0.30"/><rect x="618" y="606" width="39" height="3" rx="1.5" fill="#7E5326" opacity="0.24"/><rect x="666" y="647" width="21" height="3" rx="1.5" fill="#C68A4C" opacity="0.25"/><rect x="519" y="698" width="40" height="3" rx="1.5" fill="#7E5326" opacity="0.50"/><rect x="419" y="679" width="56" height="3" rx="1.5" fill="#6B451F" opacity="0.21"/><rect x="415" y="637" width="28" height="3" rx="1.5" fill="#7E5326" opacity="0.46"/><rect x="408" y="651" width="55" height="3" rx="1.5" fill="#C68A4C" opacity="0.43"/><rect x="467" y="661" width="28" height="3" rx="1.5" fill="#6B451F" opacity="0.41"/><rect x="782" y="597" width="30" height="3" rx="1.5" fill="#7E5326" opacity="0.30"/><rect x="819" y="648" width="52" height="3" rx="1.5" fill="#6B451F" opacity="0.28"/><rect x="735" y="625" width="23" height="3" rx="1.5" fill="#6B451F" opacity="0.32"/><rect x="438" y="616" width="57" height="3" rx="1.5" fill="#7E5326" opacity="0.25"/><rect x="443" y="586" width="41" height="3" rx="1.5" fill="#7E5326" opacity="0.40"/><rect x="472" y="704" width="56" height="3" rx="1.5" fill="#6B451F" opacity="0.35"/><rect x="622" y="697" width="40" height="3" rx="1.5" fill="#7E5326" opacity="0.48"/><rect x="668" y="636" width="42" height="3" rx="1.5" fill="#6B451F" opacity="0.45"/><rect x="587" y="646" width="54" height="3" rx="1.5" fill="#C68A4C" opacity="0.36"/><rect x="609" y="698" width="55" height="3" rx="1.5" fill="#C68A4C" opacity="0.38"/><rect x="732" y="700" width="41" height="3" rx="1.5" fill="#7E5326" opacity="0.36"/><rect x="431" y="596" width="20" height="3" rx="1.5" fill="#6B451F" opacity="0.30"/><rect x="813" y="645" width="36" height="3" rx="1.5" fill="#6B451F" opacity="0.44"/><rect x="233" y="593" width="27" height="3" rx="1.5" fill="#C68A4C" opacity="0.48"/><rect x="433" y="699" width="57" height="3" rx="1.5" fill="#C68A4C" opacity="0.27"/><rect x="487" y="623" width="56" height="3" rx="1.5" fill="#C68A4C" opacity="0.48"/><rect x="509" y="595" width="37" height="3" rx="1.5" fill="#C68A4C" opacity="0.19"/><rect x="239" y="677" width="21" height="3" rx="1.5" fill="#7E5326" opacity="0.24"/><rect x="158" y="617" width="49" height="3" rx="1.5" fill="#C68A4C" opacity="0.26"/><rect x="222" y="671" width="25" height="3" rx="1.5" fill="#C68A4C" opacity="0.34"/><rect x="641" y="668" width="55" height="3" rx="1.5" fill="#6B451F" opacity="0.19"/><rect x="433" y="647" width="26" height="3" rx="1.5" fill="#6B451F" opacity="0.25"/><rect x="515" y="609" width="29" height="3" rx="1.5" fill="#6B451F" opacity="0.35"/><rect x="736" y="610" width="50" height="3" rx="1.5" fill="#7E5326" opacity="0.44"/><rect x="366" y="620" width="57" height="3" rx="1.5" fill="#7E5326" opacity="0.25"/><rect x="757" y="598" width="30" height="3" rx="1.5" fill="#C68A4C" opacity="0.41"/><rect x="415" y="635" width="58" height="3" rx="1.5" fill="#6B451F" opacity="0.35"/><rect x="236" y="631" width="47" height="3" rx="1.5" fill="#7E5326" opacity="0.19"/><rect x="540" y="626" width="53" height="3" rx="1.5" fill="#6B451F" opacity="0.30"/><rect x="496" y="674" width="40" height="3" rx="1.5" fill="#7E5326" opacity="0.40"/><rect x="699" y="641" width="21" height="3" rx="1.5" fill="#6B451F" opacity="0.42"/><rect x="502" y="651" width="26" height="3" rx="1.5" fill="#7E5326" opacity="0.24"/><rect x="268" y="601" width="31" height="3" rx="1.5" fill="#6B451F" opacity="0.40"/><rect x="192" y="698" width="38" height="3" rx="1.5" fill="#C68A4C" opacity="0.42"/><rect x="417" y="634" width="34" height="3" rx="1.5" fill="#C68A4C" opacity="0.25"/><rect x="159" y="668" width="54" height="3" rx="1.5" fill="#C68A4C" opacity="0.24"/><rect x="396" y="627" width="57" height="3" rx="1.5" fill="#7E5326" opacity="0.37"/><rect x="501" y="584" width="56" height="3" rx="1.5" fill="#6B451F" opacity="0.44"/><rect x="749" y="693" width="58" height="3" rx="1.5" fill="#7E5326" opacity="0.36"/><rect x="495" y="702" width="52" height="3" rx="1.5" fill="#7E5326" opacity="0.26"/><rect x="659" y="677" width="53" height="3" rx="1.5" fill="#C68A4C" opacity="0.31"/><rect x="752" y="667" width="51" height="3" rx="1.5" fill="#C68A4C" opacity="0.42"/><rect x="291" y="605" width="52" height="3" rx="1.5" fill="#7E5326" opacity="0.28"/><rect x="157" y="625" width="46" height="3" rx="1.5" fill="#7E5326" opacity="0.38"/><rect x="337" y="699" width="32" height="3" rx="1.5" fill="#C68A4C" opacity="0.25"/><rect x="540" y="647" width="36" height="3" rx="1.5" fill="#6B451F" opacity="0.50"/><rect x="296" y="597" width="36" height="3" rx="1.5" fill="#7E5326" opacity="0.36"/><rect x="571" y="672" width="30" height="3" rx="1.5" fill="#7E5326" opacity="0.31"/><rect x="671" y="661" width="20" height="3" rx="1.5" fill="#C68A4C" opacity="0.26"/><rect x="769" y="649" width="40" height="3" rx="1.5" fill="#6B451F" opacity="0.49"/><rect x="729" y="594" width="38" height="3" rx="1.5" fill="#6B451F" opacity="0.39"/><rect x="559" y="675" width="22" height="3" rx="1.5" fill="#7E5326" opacity="0.48"/><rect x="414" y="700" width="54" height="3" rx="1.5" fill="#6B451F" opacity="0.35"/><rect x="190" y="697" width="37" height="3" rx="1.5" fill="#6B451F" opacity="0.35"/><rect x="364" y="647" width="39" height="3" rx="1.5" fill="#C68A4C" opacity="0.27"/><rect x="604" y="673" width="21" height="3" rx="1.5" fill="#6B451F" opacity="0.43"/><path d="M 130 702 L 130 582 Q 130 560 152 560 L 868 560 Q 890 560 890 582 L 890 702" fill="none" stroke="#B8A270" stroke-width="3"/><rect x="152" y="563" width="716" height="5" rx="2.5" fill="#FFFFFF" opacity="0.35"/><g><circle cx="360" cy="558" r="13" fill="#D6263A"/><text x="360" y="565" font-family="Archivo, Arial, sans-serif" font-size="22" font-weight="800" fill="white" text-anchor="middle">!</text></g><text x="382" y="565" font-family="Archivo, Arial, sans-serif" font-size="20" font-weight="700" fill="#D6263A" text-anchor="start">scratch breaks the cap</text><line x1="890" y1="635.0" x2="930" y2="635.0" stroke="#6B7785" stroke-width="2"/><text x="940" y="631.0" font-family="Archivo, Arial, sans-serif" font-size="21" font-weight="800" fill="#7E5326" text-anchor="start">Wood-fiber core</text><text x="940" y="657.0" font-family="Archivo, Arial, sans-serif" font-size="19" font-weight="500" fill="#7E5326" text-anchor="start">under the cap</text><line x1="140" y1="710" x2="880" y2="710" stroke="#D6263A" stroke-width="5" stroke-dasharray="9 7"/><g><circle cx="160" cy="710" r="13" fill="#D6263A"/><text x="160" y="717" font-family="Archivo, Arial, sans-serif" font-size="22" font-weight="800" fill="white" text-anchor="middle">!</text></g><text x="130" y="756" font-family="Archivo, Arial, sans-serif" font-size="22" font-weight="700" fill="#D6263A" text-anchor="start">Open underside on 3-sided caps  ·  cut ends expose the wood</text><g transform="translate(140,820)"><circle cx="0" cy="0" r="15" fill="#2E7D5B"/><g><path d="M -7 0 L -2 5 L 8 -6" fill="none" stroke="white" stroke-width="3.2" stroke-linecap="round" stroke-linejoin="round"/></g><text x="26" y="7" font-family="Inter, Arial, sans-serif" font-size="22" font-weight="500" fill="#1A1A1A">No wood, no organic filler</text></g><g transform="translate(140,866)"><circle cx="0" cy="0" r="15" fill="#2E7D5B"/><g><path d="M -7 0 L -2 5 L 8 -6" fill="none" stroke="white" stroke-width="3.2" stroke-linecap="round" stroke-linejoin="round"/></g><text x="26" y="7" font-family="Inter, Arial, sans-serif" font-size="22" font-weight="500" fill="#1A1A1A">Will not rot or feed mold</text></g><g transform="translate(140,912)"><circle cx="0" cy="0" r="15" fill="#2E7D5B"/><g><path d="M -7 0 L -2 5 L 8 -6" fill="none" stroke="white" stroke-width="3.2" stroke-linecap="round" stroke-linejoin="round"/></g><text x="26" y="7" font-family="Inter, Arial, sans-serif" font-size="22" font-weight="500" fill="#1A1A1A">Lighter, easier to handle</text></g><g transform="translate(850,820)"><circle cx="0" cy="0" r="15" fill="#D6263A"/><g><path d="M -6 -6 L 6 6 M 6 -6 L -6 6" fill="none" stroke="white" stroke-width="3.2" stroke-linecap="round"/></g><text x="26" y="7" font-family="Inter, Arial, sans-serif" font-size="22" font-weight="500" fill="#1A1A1A">Organic wood fiber inside</text></g><g transform="translate(850,866)"><circle cx="0" cy="0" r="15" fill="#D6263A"/><g><path d="M -6 -6 L 6 6 M 6 -6 L -6 6" fill="none" stroke="white" stroke-width="3.2" stroke-linecap="round"/></g><text x="26" y="7" font-family="Inter, Arial, sans-serif" font-size="22" font-weight="500" fill="#1A1A1A">Absorbs moisture where breached</text></g><g transform="translate(850,912)"><circle cx="0" cy="0" r="15" fill="#D6263A"/><g><path d="M -6 -6 L 6 6 M 6 -6 L -6 6" fill="none" stroke="white" stroke-width="3.2" stroke-linecap="round"/></g><text x="26" y="7" font-family="Inter, Arial, sans-serif" font-size="22" font-weight="500" fill="#1A1A1A">Heavier, holds heat longer</text></g><line x1="810" y1="794" x2="810" y2="928" stroke="#E5E1D8" stroke-width="2"/><text x="40" y="1020" font-family="Inter, Arial, sans-serif" font-size="20" fill="#6B7785" text-anchor="start">Cellular PVC has no wood to protect, which is why it wins on moisture, weight, cut edges, and lifespan.</text><text x="1560" y="1020" font-family="Archivo, Arial, sans-serif" font-size="20" font-weight="700" fill="#0A2A4E" text-anchor="end">ameridex.com</text></svg>